<svg width="1000" height="1000" viewBox="0 0 1000 1000" fill="none" xmlns="http://www.w3.org/2000/svg">
<rect width="1000" height="1000" rx="50" fill="white"/>
<g clip-path="url(#clip0_2215_2653)">
<path d="M805.706 550.262C802.303 550.269 798.961 549.36 796.036 547.631C793.111 545.902 790.711 543.418 789.09 540.443C772.759 510.613 749.174 485.325 720.486 466.889C698.28 452.718 673.495 443.014 647.534 438.325C642.592 437.424 638.212 434.609 635.359 430.497C632.505 426.385 631.41 421.315 632.317 416.401C633.223 411.487 636.055 407.133 640.19 404.295C644.325 401.457 649.425 400.369 654.367 401.27C685.184 406.857 714.601 418.397 740.953 435.237C774.967 457.101 802.939 487.079 822.321 522.44C823.879 525.306 824.662 528.524 824.595 531.78C824.528 535.037 823.613 538.22 821.939 541.02C820.265 543.82 817.889 546.141 815.044 547.755C812.199 549.369 808.982 550.223 805.706 550.231V550.262Z" fill="#1769FF"/>
<path d="M824.527 516.573C819.527 514.844 800.272 517.067 791.389 523.305C773.749 535.657 788.098 547.699 786.917 552.517C785.893 556.747 770.799 565.578 766.731 582.5C762.072 601.862 777.662 616.066 789.93 611.094C804.806 604.919 790.924 592.382 795.675 586.144C798.16 582.871 803.843 582.037 810.955 591.115C821.483 604.486 805.458 604.517 800.551 608.068C784.806 619.37 815.055 650.249 826.918 631.104C833.378 649.632 854.341 644.382 861.329 625.206C862.292 630.054 869.062 631.845 873.41 629.406C887.23 621.593 887.354 576.911 853.037 551.281C846.639 546.495 836.918 542.975 834.403 535.07C831.918 528.06 833.564 519.723 824.527 516.573Z" fill="white"/>
<path d="M840.925 644.413C837.851 644.346 834.863 643.394 832.322 641.674C829.781 639.953 827.795 637.536 826.607 634.717C825.098 636.366 823.192 637.606 821.067 638.319C818.942 639.032 816.67 639.195 814.464 638.793C809.816 637.691 805.547 635.38 802.092 632.097C798.638 628.815 796.123 624.678 794.805 620.111C794.046 617.616 794.099 614.947 794.958 612.484C795.818 610.021 797.438 607.892 799.588 606.401C801.324 605.338 803.193 604.507 805.147 603.93C808.253 602.819 811.949 601.553 812.601 599.36C813.098 597.724 812.073 595.253 809.495 592.166C805.054 586.484 801.824 585.619 800.178 585.619C799.573 585.604 798.973 585.737 798.432 586.006C797.89 586.275 797.424 586.673 797.073 587.163C795.83 588.8 796.607 591.61 797.507 594.821C799.091 600.565 801.265 608.377 790.551 612.731C787.509 613.847 784.215 614.098 781.038 613.454C777.862 612.81 774.929 611.298 772.569 609.087C768.871 605.723 766.184 601.405 764.807 596.613C763.431 591.821 763.42 586.743 764.774 581.945C767.631 570.149 775.488 562.213 780.675 556.963C782.354 555.516 783.808 553.831 784.992 551.961C784.772 550.463 784.277 549.019 783.532 547.699C780.768 541.524 776.14 531.519 790.209 521.637C799.246 515.462 819.092 512.59 825.054 514.69C832.725 517.345 833.782 523.459 834.744 528.832C835.008 530.705 835.423 532.553 835.986 534.36C837.663 539.424 842.974 542.635 848.13 545.754C850.148 546.989 852.26 548.255 854.093 549.645C863.593 556.588 871.258 565.72 876.429 576.256C881.601 586.792 884.124 598.418 883.783 610.137C883.13 620.296 879.652 627.862 874.248 630.919C872.712 631.73 871.008 632.18 869.269 632.234C867.53 632.287 865.801 631.943 864.217 631.228C863.193 630.764 862.257 630.127 861.453 629.344C857.012 638.639 849.093 644.413 840.925 644.413ZM826.918 628.973H827.135C827.489 629.011 827.826 629.146 828.106 629.365C828.386 629.583 828.599 629.876 828.719 630.209C830.986 636.817 835.303 640.46 840.8 640.491C848.316 640.491 855.956 633.852 859.434 624.28C859.561 623.884 859.823 623.544 860.174 623.319C860.525 623.093 860.945 622.996 861.36 623.045C861.772 623.077 862.161 623.243 862.47 623.516C862.778 623.789 862.988 624.155 863.068 624.558C863.237 625.25 863.57 625.892 864.04 626.429C864.51 626.966 865.104 627.384 865.77 627.646C866.792 628.135 867.912 628.39 869.046 628.39C870.181 628.39 871.301 628.135 872.323 627.646C876.547 625.268 879.404 618.629 879.994 609.89C880.289 598.79 877.875 587.784 872.959 577.814C868.042 567.843 860.77 559.206 851.763 552.64C849.944 551.32 848.057 550.094 846.111 548.966C840.676 545.661 834.496 541.925 832.353 535.564C831.736 533.542 831.269 531.478 830.955 529.388C830.055 524.2 829.341 520.124 823.781 518.148C819.62 516.697 801.079 518.519 792.352 524.633C780.861 532.692 784.215 540.072 786.948 546.032C788.208 548.032 788.796 550.379 788.625 552.733C787.431 555.381 785.622 557.71 783.346 559.526C778.439 564.467 770.923 571.878 768.438 582.716C767.244 586.846 767.227 591.224 768.39 595.363C769.553 599.501 771.849 603.237 775.022 606.154C776.845 607.92 779.128 609.145 781.614 609.691C784.1 610.237 786.689 610.081 789.091 609.242C796.327 606.308 795.613 602.232 793.812 595.84C792.756 591.98 791.638 588.028 794.029 584.878C794.72 583.93 795.625 583.157 796.672 582.62C797.718 582.084 798.877 581.799 800.054 581.79C802.787 581.79 807.104 583.18 812.259 589.788C815.582 593.987 816.762 597.446 815.893 600.348C814.713 604.394 810.116 605.999 806.079 607.42C804.462 607.891 802.908 608.554 801.451 609.396C799.942 610.473 798.812 611.995 798.221 613.747C797.631 615.498 797.609 617.39 798.16 619.154C799.278 623.006 801.397 626.498 804.302 629.279C807.208 632.059 810.798 634.031 814.713 634.995C816.764 635.383 818.887 635.099 820.763 634.186C822.639 633.273 824.166 631.78 825.117 629.931C825.317 629.686 825.575 629.493 825.867 629.37C826.159 629.246 826.477 629.195 826.794 629.221L826.918 628.973Z" fill="#1769FF"/>
<path d="M805.054 539.98C804.637 539.978 804.232 539.84 803.901 539.586C803.571 539.332 803.335 538.977 803.228 538.575C803.122 538.174 803.152 537.749 803.314 537.366C803.475 536.984 803.76 536.665 804.122 536.459C809.254 533.629 815.222 532.678 820.986 533.773C821.253 533.793 821.511 533.869 821.746 533.996C821.981 534.123 822.186 534.298 822.348 534.509C822.51 534.72 822.625 534.963 822.686 535.221C822.747 535.48 822.752 535.748 822.701 536.009C822.651 536.269 822.546 536.516 822.392 536.734C822.239 536.951 822.04 537.133 821.811 537.269C821.581 537.405 821.326 537.491 821.061 537.522C820.795 537.553 820.527 537.527 820.272 537.448C815.388 536.532 810.335 537.34 805.986 539.733C805.699 539.886 805.38 539.971 805.054 539.98Z" fill="#1769FF"/>
<path d="M826.794 632.988C826.404 632.994 826.023 632.875 825.707 632.648C825.302 632.356 825.026 631.919 824.939 631.429C824.853 630.94 824.961 630.435 825.241 630.023C835.117 616.004 834.154 606.03 829.775 588.089C829.671 587.607 829.759 587.103 830.019 586.683C830.28 586.263 830.693 585.959 831.173 585.835C831.416 585.775 831.668 585.764 831.915 585.801C832.162 585.839 832.4 585.925 832.613 586.054C832.827 586.183 833.013 586.353 833.16 586.554C833.307 586.755 833.413 586.983 833.471 587.225C837.571 604.146 839.465 616.405 828.347 632.185C828.172 632.433 827.94 632.635 827.669 632.775C827.399 632.915 827.099 632.988 826.794 632.988Z" fill="#1769FF"/>
<path d="M861.329 627.09H860.956C860.465 626.986 860.035 626.695 859.756 626.279C859.478 625.864 859.373 625.357 859.466 624.866C862.851 608.964 860.087 595.531 851.298 585.001C851.108 584.818 850.959 584.596 850.86 584.352C850.762 584.107 850.716 583.845 850.726 583.582C850.736 583.319 850.801 583.061 850.917 582.824C851.034 582.587 851.199 582.378 851.402 582.208C851.605 582.039 851.841 581.914 852.096 581.842C852.35 581.769 852.617 581.75 852.88 581.786C853.142 581.822 853.394 581.913 853.619 582.052C853.844 582.191 854.037 582.375 854.186 582.593C863.782 594.08 866.795 608.562 863.192 625.638C863.088 626.052 862.849 626.419 862.511 626.682C862.174 626.945 861.758 627.089 861.329 627.09Z" fill="#1769FF"/>
<path d="M163.734 499.651C163.734 457.409 170.401 420.055 183.735 387.591C195.557 357.17 213.869 329.658 237.411 306.949C260.953 284.24 289.165 266.874 320.105 256.045C385.964 233.318 457.604 233.318 523.463 256.045C553.971 266.932 581.908 283.927 605.546 305.977C629.625 328.905 648.421 356.748 660.641 387.591C673.995 420.076 680.672 457.429 680.672 499.651C680.672 541.873 674.13 579.361 661.045 612.113C649.176 643.049 630.647 671.031 606.758 694.098C583.202 716.264 555.242 733.283 524.675 744.06C491.641 755.668 456.819 761.437 421.784 761.105C386.712 761.437 351.865 755.517 318.893 743.628C288.356 732.667 260.514 715.373 237.215 692.893C213.644 669.628 195.273 641.681 183.3 610.878C170.256 578.393 163.734 541.318 163.734 499.651ZM310.725 499.651C310.725 548.914 320.798 585.722 340.944 610.075C361.089 634.429 388.005 646.606 421.691 646.606C455.978 646.606 483.204 634.429 503.37 610.075C523.536 585.722 533.609 548.914 533.588 499.651C533.588 450.924 523.64 414.373 503.743 389.999C483.846 365.625 456.764 353.459 422.498 353.5C388.75 353.5 361.669 365.543 341.254 389.629C320.84 413.715 310.663 450.389 310.725 499.651Z" fill="#1769FF"/>
<path d="M179.169 500.763C179.169 495.625 180.702 490.603 183.573 486.332C186.444 482.061 190.525 478.732 195.3 476.768C200.074 474.803 205.327 474.291 210.395 475.295C215.462 476.3 220.116 478.776 223.767 482.411C227.419 486.046 229.904 490.676 230.908 495.716C231.913 500.755 231.391 505.978 229.409 510.723C227.428 515.467 224.075 519.521 219.776 522.371C215.476 525.221 210.424 526.739 205.257 526.733C201.828 526.733 198.433 526.061 195.266 524.755C192.099 523.45 189.222 521.536 186.799 519.124C184.376 516.712 182.455 513.849 181.146 510.699C179.837 507.548 179.165 504.172 179.169 500.763ZM220.412 628.726C215.247 628.726 210.197 627.203 205.901 624.35C201.606 621.496 198.259 617.441 196.282 612.695C194.305 607.95 193.788 602.728 194.795 597.691C195.803 592.653 198.291 588.026 201.944 584.394C205.596 580.762 210.25 578.289 215.317 577.287C220.383 576.285 225.635 576.799 230.408 578.764C235.18 580.73 239.259 584.059 242.129 588.329C244.999 592.6 246.531 597.621 246.531 602.757C246.535 606.169 245.862 609.547 244.551 612.7C243.24 615.853 241.316 618.717 238.89 621.129C236.464 623.542 233.583 625.454 230.412 626.758C227.242 628.062 223.843 628.73 220.412 628.726ZM220.412 423.442C215.228 423.454 210.156 421.935 205.84 419.078C201.525 416.221 198.16 412.154 196.171 407.393C194.183 402.633 193.661 397.392 194.672 392.336C195.683 387.28 198.181 382.636 201.849 378.993C205.517 375.35 210.19 372.872 215.277 371.873C220.363 370.874 225.634 371.399 230.42 373.382C235.206 375.364 239.291 378.715 242.16 383.009C245.028 387.304 246.549 392.348 246.531 397.503C246.531 400.912 245.855 404.287 244.542 407.436C243.229 410.585 241.305 413.446 238.879 415.855C236.453 418.264 233.574 420.174 230.405 421.476C227.237 422.778 223.841 423.446 220.412 423.442Z" fill="#0A4EEB" stroke="#0B51DB" stroke-width="0.99" stroke-miterlimit="10"/>
<path d="M203.983 377.092H158.796C146.738 377.092 136.963 386.811 136.963 398.8V398.831C136.963 410.82 146.738 420.539 158.796 420.539H203.983C216.041 420.539 225.816 410.82 225.816 398.831V398.8C225.816 386.811 216.041 377.092 203.983 377.092Z" fill="#88C9FF"/>
<path d="M203.983 580.987H158.796C146.738 580.987 136.963 590.706 136.963 602.695V602.726C136.963 614.715 146.738 624.434 158.796 624.434H203.983C216.041 624.434 225.816 614.715 225.816 602.726V602.695C225.816 590.706 216.041 580.987 203.983 580.987Z" fill="#88C9FF"/>
<path d="M183.02 479.055H137.833C125.775 479.055 116 488.774 116 500.763V500.794C116 512.783 125.775 522.502 137.833 522.502H183.02C195.078 522.502 204.853 512.783 204.853 500.794V500.763C204.853 488.774 195.078 479.055 183.02 479.055Z" fill="#88C9FF"/>
<path d="M690.144 388.487L683.933 596.952C683.916 598.404 684.188 599.844 684.732 601.192C685.275 602.539 686.081 603.767 687.101 604.805C688.122 605.843 689.339 606.671 690.681 607.242C692.024 607.812 693.467 608.114 694.927 608.13L738.841 609.427C740.3 609.439 741.742 609.737 743.084 610.305C744.427 610.872 745.644 611.697 746.665 612.732C747.686 613.768 748.492 614.994 749.036 616.339C749.58 617.685 749.851 619.124 749.835 620.575C749.682 623.502 748.373 626.251 746.192 628.223C744.011 630.195 741.134 631.23 738.189 631.104L694.275 629.807C692.818 629.737 691.362 629.952 689.99 630.442C688.617 630.932 687.356 631.686 686.277 632.661C685.198 633.636 684.323 634.814 683.702 636.126C683.082 637.437 682.727 638.858 682.659 640.306L682.38 649.879C682.359 651.329 682.627 652.769 683.167 654.116C683.708 655.464 684.51 656.692 685.528 657.73C686.547 658.769 687.761 659.597 689.102 660.168C690.443 660.739 691.884 661.041 693.343 661.057L749.245 662.694C752.189 662.828 755.067 661.794 757.245 659.819C759.423 657.845 760.723 655.091 760.86 652.164L768.593 390.772C768.614 389.319 768.345 387.876 767.803 386.527C767.261 385.178 766.456 383.948 765.434 382.909C764.412 381.87 763.194 381.043 761.85 380.474C760.505 379.905 759.06 379.605 757.599 379.593L701.697 377.988C698.768 377.87 695.912 378.907 693.748 380.873C691.584 382.84 690.289 385.576 690.144 388.487Z" fill="#88C9FF"/>
<path d="M769.68 354.951C769.836 350.289 767.569 346.429 764.618 346.336L696.759 344.36C693.654 344.36 691.324 347.973 691.2 352.666C691.2 357.329 693.312 361.189 696.262 361.251L764.121 363.258C767.072 363.412 769.556 359.614 769.68 354.951Z" fill="#0A4EEB"/>
<path d="M713.665 286.814C702.092 286.477 692.435 295.531 692.096 307.038C691.757 318.544 700.863 328.146 712.436 328.483L749.036 329.55C760.608 329.888 770.265 320.834 770.604 309.327C770.944 297.82 761.838 288.219 750.265 287.882L713.665 286.814Z" fill="#1769FF"/>
<path d="M749.959 680.881C751.114 680.881 752.247 681.191 753.239 681.777C754.232 682.363 755.047 683.205 755.6 684.212C756.153 685.22 756.423 686.357 756.381 687.504C756.339 688.651 755.988 689.766 755.363 690.731L741.76 712.625L728.188 734.518C727.598 735.478 726.764 736.266 725.769 736.803C724.775 737.34 723.655 737.606 722.524 737.575C721.392 737.543 720.29 737.216 719.327 736.625C718.364 736.034 717.575 735.201 717.039 734.209L704.616 711.575L692.194 688.91C691.696 687.925 691.462 686.83 691.515 685.73C691.568 684.629 691.907 683.562 692.497 682.629C693.088 681.697 693.911 680.933 694.886 680.41C695.861 679.887 696.956 679.624 698.064 679.646L723.934 680.387L749.959 680.881Z" fill="#1769FF"/>
</g>
<defs>
<clipPath id="clip0_2215_2653">
<rect width="768" height="522.105" fill="white" transform="translate(116 239)"/>
</clipPath>
</defs>
</svg>
