<svg width="104" height="71" viewBox="0 0 104 71" fill="none" xmlns="http://www.w3.org/2000/svg">
<g clip-path="url(#clip0_2001_201)">
<path d="M93.3978 42.3285C92.937 42.3294 92.4845 42.2058 92.0884 41.9707C91.6923 41.7356 91.3673 41.3978 91.1479 40.9932C88.9363 36.9367 85.7425 33.4979 81.8577 30.9907C78.8506 29.0637 75.4944 27.7441 71.9788 27.1064C71.3096 26.9839 70.7164 26.601 70.33 26.0419C69.9435 25.4827 69.7954 24.7932 69.918 24.125C70.0407 23.4568 70.4243 22.8646 70.9842 22.4787C71.5442 22.0929 72.2348 21.9449 72.904 22.0674C77.0772 22.8271 81.0607 24.3964 84.6292 26.6865C89.2353 29.6597 93.0232 33.7363 95.6479 38.545C95.8588 38.9347 95.9648 39.3723 95.9557 39.8152C95.9467 40.258 95.8228 40.691 95.5961 41.0717C95.3694 41.4524 95.0477 41.768 94.6624 41.9875C94.2771 42.2071 93.8414 42.3231 93.3978 42.3243V42.3285Z" fill="#1769FF"/>
<path d="M95.9462 37.747C95.2691 37.5118 92.6617 37.8142 91.4589 38.6624C89.0701 40.3421 91.0131 41.9798 90.8533 42.6349C90.7145 43.2102 88.6706 44.4111 88.1196 46.7123C87.4888 49.3452 89.6 51.2768 91.2612 50.6007C93.2757 49.7609 91.3958 48.056 92.0392 47.2078C92.3757 46.7627 93.1453 46.6493 94.1084 47.8839C95.5341 49.7021 93.364 49.7063 92.6995 50.1892C90.5673 51.7261 94.6635 55.9253 96.2701 53.3218C97.1448 55.8413 99.9836 55.1275 100.93 52.5198C101.06 53.1791 101.977 53.4226 102.566 53.0909C104.437 52.0285 104.454 45.9522 99.8069 42.4669C98.9406 41.816 97.6242 41.3373 97.2836 40.2623C96.9471 39.3091 97.1701 38.1753 95.9462 37.747Z" fill="white"/>
<path d="M98.1668 55.132C97.7505 55.1229 97.3458 54.9935 97.0017 54.7594C96.6577 54.5254 96.3888 54.1968 96.2279 53.8134C96.0236 54.0377 95.7654 54.2062 95.4777 54.3032C95.19 54.4002 94.8823 54.4224 94.5836 54.3677C93.9542 54.2178 93.376 53.9036 92.9082 53.4572C92.4404 53.0108 92.0998 52.4483 91.9214 51.8272C91.8185 51.488 91.8258 51.1249 91.9422 50.79C92.0585 50.4551 92.2779 50.1655 92.5691 49.9628C92.8041 49.8182 93.0573 49.7053 93.3219 49.6268C93.7425 49.4757 94.2429 49.3035 94.3313 49.0053C94.3986 48.7828 94.2598 48.4469 93.9107 48.0269C93.3093 47.2543 92.8719 47.1367 92.649 47.1367C92.5671 47.1346 92.4858 47.1527 92.4125 47.1893C92.3392 47.2259 92.276 47.28 92.2285 47.3467C92.0602 47.5692 92.1653 47.9513 92.2873 48.3881C92.5018 49.1691 92.7962 50.2315 91.3453 50.8236C90.9334 50.9754 90.4873 51.0094 90.0571 50.9219C89.627 50.8344 89.2298 50.6287 88.9103 50.3281C88.4094 49.8707 88.0456 49.2834 87.8592 48.6317C87.6728 47.9801 87.6713 47.2895 87.8546 46.637C88.2416 45.0329 89.3056 43.9537 90.0079 43.2398C90.2353 43.0431 90.4323 42.8139 90.5925 42.5596C90.5627 42.356 90.4957 42.1595 90.3948 41.9801C90.0205 41.1402 89.3939 39.7797 91.299 38.436C92.5228 37.5961 95.2102 37.2056 96.0177 37.4911C97.0564 37.8523 97.1995 38.6837 97.3298 39.4144C97.3656 39.6691 97.4218 39.9204 97.498 40.166C97.7251 40.8547 98.4443 41.2914 99.1424 41.7155C99.4158 41.8835 99.7018 42.0557 99.9499 42.2446C101.236 43.1889 102.274 44.4306 102.975 45.8634C103.675 47.2962 104.017 48.8773 103.97 50.4709C103.882 51.8524 103.411 52.8812 102.679 53.2969C102.471 53.4073 102.241 53.4684 102.005 53.4757C101.77 53.483 101.535 53.4362 101.321 53.3389C101.182 53.2759 101.056 53.1892 100.947 53.0828C100.345 54.3467 99.2728 55.132 98.1668 55.132ZM96.27 53.0324H96.2994C96.3474 53.0374 96.3929 53.0558 96.4309 53.0856C96.4688 53.1153 96.4976 53.1551 96.5139 53.2004C96.8209 54.099 97.4055 54.5945 98.1499 54.5987C99.1677 54.5987 100.202 53.6958 100.673 52.3941C100.69 52.3402 100.726 52.294 100.773 52.2634C100.821 52.2327 100.878 52.2196 100.934 52.2261C100.99 52.2306 101.043 52.2531 101.084 52.2902C101.126 52.3274 101.155 52.3771 101.165 52.4319C101.188 52.526 101.233 52.6133 101.297 52.6864C101.361 52.7594 101.441 52.8162 101.531 52.8518C101.67 52.9184 101.821 52.953 101.975 52.953C102.129 52.953 102.28 52.9184 102.419 52.8518C102.991 52.5285 103.377 51.6256 103.457 50.4373C103.497 48.9278 103.17 47.4311 102.505 46.0753C101.839 44.7194 100.854 43.5448 99.6345 42.652C99.3881 42.4725 99.1326 42.3057 98.8691 42.1523C98.1331 41.703 97.2962 41.1948 97.006 40.3298C96.9225 40.0549 96.8592 39.7742 96.8167 39.49C96.6948 38.7845 96.5981 38.2302 95.8453 37.9615C95.2817 37.7641 92.771 38.0119 91.5892 38.8433C90.0331 39.9393 90.4873 40.9429 90.8574 41.7533C91.0281 42.0253 91.1076 42.3444 91.0845 42.6646C90.9229 43.0247 90.6778 43.3414 90.3696 43.5884C89.7051 44.2603 88.6873 45.2681 88.3509 46.742C88.1892 47.3036 88.1869 47.8989 88.3444 48.4617C88.5018 49.0245 88.8127 49.5325 89.2425 49.9292C89.4893 50.1694 89.7985 50.336 90.1351 50.4102C90.4717 50.4844 90.8224 50.4632 91.1476 50.3491C92.1275 49.9502 92.0308 49.3959 91.7869 48.5266C91.6439 48.0017 91.4924 47.4642 91.8163 47.0359C91.9098 46.907 92.0324 46.8019 92.1742 46.7289C92.3159 46.656 92.4728 46.6173 92.6322 46.616C93.0023 46.616 93.5868 46.805 94.285 47.7036C94.735 48.2747 94.8948 48.745 94.777 49.1397C94.6172 49.6898 93.9948 49.9082 93.448 50.1013C93.2291 50.1654 93.0187 50.2556 92.8214 50.3701C92.617 50.5166 92.464 50.7236 92.384 50.9617C92.304 51.1999 92.3011 51.4571 92.3757 51.697C92.5271 52.2209 92.814 52.6957 93.2075 53.0739C93.6009 53.452 94.0871 53.7201 94.6172 53.8512C94.895 53.9039 95.1825 53.8653 95.4365 53.7412C95.6905 53.617 95.8974 53.414 96.0261 53.1625C96.0532 53.1293 96.0881 53.1031 96.1277 53.0862C96.1672 53.0694 96.2103 53.0625 96.2532 53.066L96.27 53.0324Z" fill="#1769FF"/>
<path d="M93.3094 40.9297C93.2529 40.9295 93.198 40.9107 93.1533 40.8761C93.1086 40.8416 93.0766 40.7933 93.0622 40.7387C93.0478 40.6841 93.0518 40.6263 93.0737 40.5743C93.0956 40.5222 93.1341 40.4789 93.1832 40.451C93.8781 40.066 94.6863 39.9367 95.4669 40.0856C95.5029 40.0884 95.538 40.0987 95.5698 40.116C95.6015 40.1332 95.6293 40.157 95.6512 40.1857C95.6732 40.2144 95.6888 40.2474 95.697 40.2825C95.7053 40.3177 95.706 40.3542 95.6991 40.3896C95.6923 40.4251 95.678 40.4587 95.6572 40.4882C95.6365 40.5178 95.6096 40.5426 95.5785 40.5611C95.5475 40.5796 95.5129 40.5913 95.4769 40.5955C95.441 40.5996 95.4046 40.5962 95.3702 40.5853C94.7087 40.4607 94.0245 40.5706 93.4356 40.8961C93.3968 40.917 93.3535 40.9285 93.3094 40.9297Z" fill="#1769FF"/>
<path d="M96.2532 53.5779C96.2004 53.5788 96.1487 53.5626 96.106 53.5317C96.0511 53.492 96.0138 53.4326 96.002 53.366C95.9902 53.2994 96.0049 53.2308 96.0429 53.1748C97.3803 51.2683 97.2499 49.912 96.6569 47.4723C96.6428 47.4067 96.6546 47.3382 96.6899 47.281C96.7252 47.2239 96.7811 47.1826 96.8462 47.1657C96.879 47.1576 96.9132 47.156 96.9466 47.1611C96.9801 47.1663 97.0123 47.1779 97.0412 47.1955C97.0701 47.2131 97.0953 47.2362 97.1152 47.2635C97.1352 47.2908 97.1495 47.3218 97.1574 47.3547C97.7125 49.6558 97.969 51.3229 96.4634 53.4687C96.4398 53.5024 96.4083 53.53 96.3717 53.549C96.3351 53.568 96.2944 53.5779 96.2532 53.5779Z" fill="#1769FF"/>
<path d="M100.93 52.7745H100.88C100.813 52.7604 100.755 52.7208 100.717 52.6643C100.679 52.6078 100.665 52.5389 100.678 52.4722C101.136 50.3096 100.762 48.483 99.5717 47.051C99.546 47.026 99.5259 46.996 99.5125 46.9627C99.4992 46.9295 99.493 46.8938 99.4943 46.858C99.4956 46.8222 99.5045 46.7871 99.5202 46.7549C99.536 46.7228 99.5584 46.6942 99.5859 46.6712C99.6133 46.6482 99.6453 46.6312 99.6798 46.6213C99.7143 46.6114 99.7504 46.6088 99.786 46.6138C99.8215 46.6187 99.8556 46.631 99.8861 46.6499C99.9165 46.6688 99.9427 46.6939 99.9628 46.7235C101.262 48.2856 101.67 50.255 101.182 52.5772C101.168 52.6334 101.136 52.6834 101.09 52.7191C101.045 52.7549 100.988 52.7744 100.93 52.7745Z" fill="#1769FF"/>
<path d="M6.46387 35.4455C6.46387 29.701 7.36664 24.6214 9.17224 20.2066C10.7732 16.0698 13.253 12.3284 16.4409 9.2403C19.6289 6.15215 23.4493 3.79053 27.639 2.31803C36.5574 -0.772677 46.2587 -0.772677 55.1772 2.31803C59.3084 3.79852 63.0916 6.10955 66.2926 9.10815C69.5533 12.226 72.0986 16.0124 73.7533 20.2066C75.5617 24.6242 76.4659 29.7038 76.4659 35.4455C76.4659 41.1872 75.5799 46.285 73.808 50.739C72.2007 54.9459 69.6917 58.751 66.4566 61.8878C63.2668 64.9021 59.4805 67.2165 55.3412 68.6821C50.8679 70.2607 46.1524 71.0452 41.4081 71.0001C36.6588 71.0451 31.9399 70.2402 27.475 68.6233C23.3398 67.1329 19.5694 64.781 16.4143 61.7241C13.2225 58.5602 10.7347 54.7598 9.11341 50.571C7.34706 46.1534 6.46387 41.1116 6.46387 35.4455ZM26.3689 35.4455C26.3689 42.1446 27.733 47.1501 30.461 50.4618C33.189 53.7736 36.8339 55.4295 41.3955 55.4295C46.0385 55.4295 49.7254 53.7736 52.4562 50.4618C55.187 47.1501 56.551 42.1446 56.5482 35.4455C56.5482 28.8192 55.201 23.8487 52.5066 20.5341C49.8123 17.2196 46.145 15.5651 41.5048 15.5707C36.9347 15.5707 33.2675 17.2084 30.503 20.4838C27.7386 23.7591 26.3605 28.7464 26.3689 35.4455Z" fill="#1769FF"/>
<path d="M8.5542 35.5966C8.5542 34.8979 8.76177 34.215 9.15059 33.6341C9.53942 33.0533 10.092 32.6006 10.7386 32.3335C11.3851 32.0663 12.0965 31.9966 12.7827 32.1332C13.4689 32.2698 14.0991 32.6066 14.5936 33.1009C15.0881 33.5952 15.4246 34.2249 15.5606 34.9102C15.6966 35.5955 15.6259 36.3057 15.3576 36.951C15.0892 37.5962 14.6352 38.1474 14.053 38.535C13.4708 38.9225 12.7866 39.1289 12.0869 39.1281C11.6226 39.1281 11.1629 39.0367 10.7341 38.8592C10.3052 38.6817 9.91552 38.4215 9.58743 38.0935C9.25933 37.7655 8.99922 37.3762 8.82193 36.9477C8.64464 36.5193 8.55365 36.0601 8.5542 35.5966ZM14.1392 52.998C13.4397 52.998 12.7559 52.7909 12.1742 52.4029C11.5926 52.0148 11.1393 51.4633 10.8716 50.818C10.6039 50.1727 10.5338 49.4626 10.6703 48.7775C10.8068 48.0925 11.1436 47.4632 11.6383 46.9694C12.1329 46.4755 12.7631 46.1391 13.4492 46.0029C14.1353 45.8666 14.8465 45.9365 15.4928 46.2038C16.139 46.4711 16.6914 46.9238 17.0801 47.5045C17.4687 48.0853 17.6761 48.7681 17.6761 49.4665C17.6767 49.9304 17.5856 50.3899 17.408 50.8186C17.2305 51.2473 16.97 51.6369 16.6414 51.9649C16.3129 52.293 15.9228 52.5531 15.4934 52.7304C15.0641 52.9076 14.6039 52.9986 14.1392 52.998ZM14.1392 25.0818C13.4371 25.0834 12.7504 24.8769 12.166 24.4884C11.5816 24.0999 11.1258 23.5469 10.8566 22.8994C10.5873 22.252 10.5167 21.5394 10.6536 20.8518C10.7904 20.1642 11.1287 19.5327 11.6254 19.0373C12.1222 18.5419 12.755 18.2049 13.4438 18.0691C14.1326 17.9332 14.8463 18.0046 15.4944 18.2742C16.1425 18.5439 16.6958 18.9995 17.0842 19.5835C17.4726 20.1675 17.6786 20.8534 17.6761 21.5545C17.6762 22.018 17.5846 22.477 17.4068 22.9053C17.229 23.3335 16.9684 23.7225 16.6399 24.0501C16.3115 24.3777 15.9215 24.6375 15.4924 24.8145C15.0634 24.9915 14.6035 25.0823 14.1392 25.0818Z" fill="#0A4EEB" stroke="#0B51DB" stroke-width="0.99" stroke-miterlimit="10"/>
<path d="M11.9145 18.7793H5.7954C4.16255 18.7793 2.83887 20.101 2.83887 21.7313V21.7355C2.83887 23.3659 4.16255 24.6876 5.7954 24.6876H11.9145C13.5474 24.6876 14.8711 23.3659 14.8711 21.7355V21.7313C14.8711 20.101 13.5474 18.7793 11.9145 18.7793Z" fill="#88C9FF"/>
<path d="M11.9145 46.5059H5.7954C4.16255 46.5059 2.83887 47.8275 2.83887 49.4579V49.4621C2.83887 51.0925 4.16255 52.4141 5.7954 52.4141H11.9145C13.5474 52.4141 14.8711 51.0925 14.8711 49.4621V49.4579C14.8711 47.8275 13.5474 46.5059 11.9145 46.5059Z" fill="#88C9FF"/>
<path d="M9.07566 32.6445H2.95653C1.32368 32.6445 0 33.9662 0 35.5966V35.6008C0 37.2311 1.32368 38.5528 2.95653 38.5528H9.07566C10.7085 38.5528 12.0322 37.2311 12.0322 35.6008V35.5966C12.0322 33.9662 10.7085 32.6445 9.07566 32.6445Z" fill="#88C9FF"/>
<path d="M77.7488 20.3274L76.9077 48.6762C76.9055 48.8736 76.9422 49.0695 77.0159 49.2528C77.0895 49.436 77.1985 49.603 77.3368 49.7441C77.475 49.8853 77.6397 49.9979 77.8216 50.0754C78.0034 50.153 78.1988 50.1941 78.3965 50.1963L84.3432 50.3726C84.5407 50.3743 84.736 50.4148 84.9178 50.492C85.0996 50.5691 85.2644 50.6813 85.4027 50.8221C85.541 50.9629 85.6501 51.1296 85.7237 51.3126C85.7974 51.4956 85.8342 51.6913 85.8319 51.8886C85.8112 52.2866 85.6339 52.6604 85.3386 52.9286C85.0432 53.1968 84.6537 53.3376 84.2548 53.3205L78.3081 53.1441C78.1109 53.1345 77.9138 53.1638 77.7279 53.2304C77.5421 53.297 77.3712 53.3996 77.2251 53.5322C77.079 53.6648 76.9605 53.8249 76.8765 54.0033C76.7924 54.1817 76.7444 54.3749 76.7353 54.5718L76.6974 55.8736C76.6946 56.0708 76.7309 56.2666 76.804 56.4499C76.8772 56.6331 76.9858 56.8001 77.1237 56.9413C77.2616 57.0825 77.4261 57.1951 77.6077 57.2728C77.7893 57.3504 77.9845 57.3915 78.182 57.3937L85.7521 57.6162C86.1508 57.6345 86.5404 57.4939 86.8354 57.2254C87.1303 56.9569 87.3064 56.5824 87.3249 56.1843L88.3721 20.6381C88.3749 20.4406 88.3386 20.2444 88.2651 20.0609C88.1917 19.8774 88.0827 19.7102 87.9443 19.569C87.806 19.4277 87.641 19.3151 87.4589 19.2377C87.2769 19.1604 87.0812 19.1197 86.8833 19.118L79.3133 18.8997C78.9167 18.8837 78.5298 19.0247 78.2368 19.2921C77.9438 19.5595 77.7684 19.9316 77.7488 20.3274Z" fill="#88C9FF"/>
<path d="M88.5191 15.7684C88.5402 15.1344 88.2332 14.6095 87.8336 14.5969L78.6444 14.3281C78.2239 14.3281 77.9084 14.8194 77.8916 15.4577C77.8916 16.0918 78.1776 16.6167 78.5771 16.6251L87.7663 16.898C88.1658 16.919 88.5023 16.4025 88.5191 15.7684Z" fill="#0A4EEB"/>
<path d="M80.9337 6.50256C79.3666 6.45666 78.0589 7.68794 78.0129 9.2527C77.9669 10.8175 79.2001 12.1231 80.7672 12.169L85.7235 12.3142C87.2906 12.3601 88.5983 11.1288 88.6443 9.56404C88.6902 7.99929 87.4571 6.6936 85.8899 6.6477L80.9337 6.50256Z" fill="#1769FF"/>
<path d="M85.8489 60.09C86.0052 60.0901 86.1586 60.1322 86.293 60.2119C86.4275 60.2916 86.5379 60.406 86.6128 60.543C86.6876 60.6801 86.7241 60.8347 86.7185 60.9907C86.7128 61.1467 86.6652 61.2983 86.5806 61.4296L84.7386 64.4068L82.9008 67.384C82.8208 67.5146 82.7079 67.6218 82.5732 67.6948C82.4385 67.7677 82.2869 67.8039 82.1337 67.7997C81.9805 67.7954 81.8311 67.7509 81.7007 67.6705C81.5703 67.5902 81.4635 67.4768 81.391 67.342L79.7087 64.264L78.0265 61.1818C77.9591 61.048 77.9274 60.899 77.9346 60.7494C77.9418 60.5998 77.9876 60.4545 78.0676 60.3278C78.1475 60.201 78.259 60.0971 78.391 60.026C78.5231 59.9549 78.6713 59.9191 78.8214 59.922L82.3246 60.0228L85.8489 60.09Z" fill="#1769FF"/>
</g>
<defs>
<clipPath id="clip0_2001_201">
<rect width="104" height="71" fill="white"/>
</clipPath>
</defs>
</svg>
