<svg width="272" height="69" viewBox="0 0 272 69" fill="none" xmlns="http://www.w3.org/2000/svg">
<g clip-path="url(#clip0_106_77)">
<path d="M111.921 40.7793C111.878 38.4465 112.291 36.1276 113.138 33.9527C113.877 32.0767 115.009 30.38 116.46 28.9767C117.884 27.63 119.574 26.5941 121.422 25.9349C123.4 25.2285 125.489 24.8773 127.59 24.8975C129.692 24.8782 131.78 25.2294 133.759 25.9349C135.612 26.598 137.308 27.6333 138.743 28.9767C140.207 30.3739 141.35 32.0717 142.092 33.9527C142.939 36.1276 143.352 38.4465 143.308 40.7793C143.35 43.1182 142.946 45.4438 142.118 47.6323C141.397 49.5186 140.27 51.2245 138.818 52.6302C137.388 53.9817 135.691 55.0194 133.834 55.6765C131.826 56.3827 129.71 56.7337 127.582 56.7139C125.452 56.7335 123.336 56.3733 121.333 55.6501C119.48 54.9864 117.789 53.9376 116.372 52.5731C114.939 51.1566 113.823 49.4532 113.098 47.5751C112.274 45.4058 111.874 43.0988 111.921 40.7793ZM120.849 40.7793C120.849 43.7831 121.461 46.0264 122.686 47.5092C123.277 48.2387 124.03 48.8202 124.886 49.2072C125.743 49.5942 126.678 49.7759 127.617 49.7379C128.561 49.7759 129.5 49.5944 130.361 49.2076C131.222 48.8208 131.982 48.2393 132.578 47.5092C133.803 46.0264 134.416 43.7831 134.416 40.7793C134.416 37.7756 133.812 35.5484 132.605 34.0978C132.013 33.3687 131.259 32.7879 130.402 32.4017C129.545 32.0155 128.609 31.8346 127.67 31.8735C126.733 31.8389 125.802 32.019 124.946 32.4001C124.09 32.7811 123.334 33.3529 122.735 34.0714C121.477 35.5425 120.849 37.7785 120.849 40.7793Z" fill="black"/>
<path d="M160.365 40.5552C160.365 39.5265 160.071 38.7734 159.484 38.2957C158.805 37.7845 157.967 37.5291 157.117 37.5748C156.454 37.575 155.794 37.6592 155.152 37.8254C154.555 37.9666 153.99 38.2186 153.487 38.5683V55.7952C152.972 55.9332 152.448 56.0332 151.918 56.0941C151.188 56.1953 150.452 56.2453 149.715 56.2436C149.057 56.2497 148.399 56.1997 147.75 56.0941C147.22 56.0165 146.717 55.813 146.282 55.5007C145.871 55.1846 145.553 54.764 145.361 54.2831C145.124 53.6406 145.015 52.9583 145.04 52.2742V37.377C145.003 36.6034 145.202 35.8368 145.612 35.1791C146.034 34.5745 146.565 34.0529 147.177 33.6406C148.479 32.7646 149.917 32.1096 151.433 31.7021C153.291 31.1905 155.212 30.9448 157.14 30.9724C160.888 30.9724 163.775 31.7915 165.802 33.4296C167.829 35.0678 168.841 37.3433 168.838 40.2562V55.7952C168.324 55.9332 167.799 56.0332 167.27 56.0941C166.54 56.1953 165.804 56.2453 165.067 56.2436C164.408 56.2497 163.751 56.1997 163.101 56.0941C162.572 56.0165 162.068 55.813 161.634 55.5007C161.223 55.1846 160.905 54.764 160.713 54.2831C160.476 53.6406 160.367 52.9583 160.391 52.2742L160.365 40.5552Z" fill="black"/>
<path d="M183.904 56.648C183.34 56.648 182.679 56.648 181.912 56.5996C181.145 56.5513 180.361 56.5029 179.55 56.4018C178.739 56.3007 177.933 56.1776 177.136 56.0282C176.383 55.8932 175.645 55.6856 174.932 55.4084C173.108 54.7138 172.196 53.5065 172.196 51.7863V28.5899C172.178 28.2957 172.219 28.0009 172.318 27.7231C172.416 27.4452 172.57 27.1898 172.769 26.9723C173.216 26.553 173.752 26.2391 174.338 26.0536C175.709 25.601 177.129 25.306 178.568 25.1744C180.304 24.9911 182.048 24.9002 183.794 24.9019C188.035 24.9019 191.303 25.6125 193.598 27.0338C195.892 28.4551 197.036 30.653 197.03 33.6274C197.062 35.0204 196.605 36.3807 195.739 37.4737C194.831 38.5807 193.62 39.4008 192.254 39.8342C193.855 40.2607 195.298 41.14 196.409 42.3662C197.539 43.6337 198.135 45.2868 198.075 46.9817C198.075 50.2609 196.855 52.6859 194.417 54.2567C191.979 55.8274 188.475 56.6245 183.904 56.648ZM180.669 37.5353H184.305C185.728 37.5353 186.768 37.2715 187.416 36.7396C187.746 36.4512 188.006 36.0905 188.174 35.6856C188.342 35.2808 188.414 34.8427 188.385 34.4055C188.394 33.9842 188.296 33.5674 188.1 33.1939C187.905 32.8205 187.618 32.5023 187.266 32.2691C186.517 31.7417 185.396 31.4779 183.904 31.4779C183.406 31.4779 182.833 31.4779 182.19 31.5263C181.68 31.5465 181.173 31.5964 180.669 31.6757V37.5353ZM180.669 49.6499C181.256 49.8021 181.857 49.8934 182.463 49.9225C183.19 49.9708 183.886 49.9972 184.551 49.9972C185.71 50.0402 186.856 49.7568 187.861 49.1796C188.292 48.9125 188.644 48.5334 188.876 48.0828C189.109 47.6323 189.215 47.1271 189.183 46.6213C189.183 45.5267 188.821 44.7487 188.09 44.2871C187.358 43.8256 186.248 43.5926 184.754 43.5926H180.674L180.669 49.6499Z" fill="black"/>
<path d="M199.634 32.0626C200.149 31.9287 200.671 31.8289 201.199 31.7636C201.929 31.6662 202.665 31.6177 203.402 31.6186C204.06 31.6131 204.717 31.6616 205.367 31.7636C205.897 31.8428 206.4 32.0478 206.834 32.3615C207.247 32.6763 207.565 33.0972 207.755 33.5791C207.994 34.2212 208.104 34.9036 208.081 35.5879V46.2652C208.081 47.625 208.413 48.5935 209.077 49.1708C209.738 49.7466 210.703 50.0499 211.963 50.0499C212.591 50.0652 213.217 49.9987 213.827 49.8521C214.213 49.7549 214.589 49.6225 214.951 49.4565V32.0626C215.465 31.9287 215.988 31.8289 216.515 31.7636C217.245 31.6662 217.981 31.6177 218.718 31.6186C219.376 31.6131 220.034 31.6616 220.684 31.7636C221.214 31.8428 221.717 32.0478 222.151 32.3615C222.563 32.6763 222.881 33.0972 223.072 33.5791C223.31 34.2212 223.421 34.9036 223.398 35.5879V50.6829C223.431 51.4364 223.253 52.1842 222.883 52.8421C222.513 53.4999 221.967 54.0416 221.305 54.4061C220.021 55.1853 218.617 55.7481 217.15 56.0721C215.428 56.4626 213.667 56.6529 211.902 56.6391C210.232 56.6543 208.567 56.4549 206.949 56.0457C205.537 55.6966 204.209 55.0722 203.04 54.2083C201.936 53.3722 201.062 52.2695 200.502 51.0038C199.871 49.5056 199.571 47.8895 199.621 46.2652L199.634 32.0626Z" fill="black"/>
<path d="M246.518 48.6477C246.518 51.1621 245.572 53.1314 243.68 54.5556C241.789 55.9798 238.998 56.6919 235.308 56.6919C234.008 56.6985 232.71 56.5985 231.426 56.393C230.368 56.2357 229.338 55.9262 228.368 55.4743C227.59 55.1165 226.908 54.5803 226.377 53.9094C225.889 53.2682 225.634 52.4809 225.654 51.6764C225.629 50.9735 225.801 50.2777 226.152 49.6675C226.462 49.1421 226.867 48.6786 227.346 48.3004C228.404 48.8707 229.512 49.3444 230.655 49.7159C232.048 50.1505 233.501 50.3598 234.96 50.3357C235.773 50.3821 236.585 50.2312 237.326 49.8961C237.564 49.7986 237.769 49.634 237.914 49.4224C238.06 49.2108 238.14 48.9614 238.146 48.7048C238.151 48.4866 238.098 48.2708 237.993 48.0794C237.888 47.888 237.734 47.7277 237.547 47.6147C236.934 47.2809 236.265 47.0647 235.573 46.9773L234.079 46.6784C231.191 46.1158 229.042 45.2366 227.632 44.041C226.222 42.8453 225.517 41.1149 225.517 38.8496C225.501 37.6928 225.775 36.5503 226.315 35.5264C226.848 34.5299 227.617 33.6776 228.553 33.0428C229.61 32.3375 230.78 31.8172 232.012 31.5043C233.46 31.1141 234.954 30.9175 236.454 30.9197C237.613 30.914 238.77 31.0067 239.913 31.1966C240.882 31.3441 241.827 31.619 242.724 32.0142C243.458 32.3301 244.106 32.8152 244.614 33.4296C245.083 34.0137 245.331 34.7434 245.315 35.4912C245.326 36.1703 245.175 36.8423 244.874 37.4517C244.61 37.971 244.246 38.4338 243.804 38.8144C243.425 38.6011 243.024 38.4273 242.61 38.2957C242.076 38.1155 241.495 37.9485 240.847 37.799C240.199 37.6495 239.578 37.5265 238.93 37.4254C238.347 37.3323 237.758 37.2824 237.168 37.2759C236.306 37.2406 235.445 37.3673 234.63 37.6496C234.378 37.7252 234.157 37.8788 233.998 38.0883C233.84 38.2977 233.752 38.552 233.748 38.8144C233.751 38.9907 233.799 39.1635 233.886 39.317C233.973 39.4705 234.097 39.5999 234.246 39.6936C234.834 40.0178 235.473 40.2365 236.137 40.3398L237.679 40.687C240.866 41.4108 243.131 42.4116 244.473 43.6893C245.147 44.3238 245.678 45.094 246.031 45.9489C246.383 46.8039 246.549 47.7238 246.518 48.6477Z" fill="black"/>
<path d="M272 55.7952C271.485 55.9328 270.961 56.0327 270.431 56.0941C269.701 56.1952 268.965 56.2451 268.228 56.2436C267.57 56.2497 266.913 56.1997 266.263 56.0941C265.733 56.0165 265.23 55.8129 264.796 55.5007C264.383 55.1859 264.065 54.7649 263.875 54.283C263.636 53.6409 263.526 52.9586 263.549 52.2742V41.2629C263.549 39.9046 263.209 38.9551 262.531 38.4056C261.815 37.8495 260.926 37.5603 260.019 37.588C259.379 37.5847 258.742 37.6691 258.124 37.8386C257.617 37.9643 257.132 38.1643 256.683 38.432V55.8084C256.169 55.946 255.644 56.0459 255.115 56.1073C254.385 56.2084 253.649 56.2583 252.912 56.2567C252.254 56.2629 251.596 56.2129 250.946 56.1073C250.417 56.0297 249.913 55.8261 249.479 55.5138C249.068 55.1978 248.75 54.7772 248.558 54.2962C248.321 53.6538 248.212 52.9715 248.237 52.2874V23.4733C248.598 23.4074 249.118 23.3194 249.854 23.2007C250.569 23.0845 251.292 23.0258 252.017 23.0249C252.675 23.0207 253.333 23.0707 253.982 23.1744C254.512 23.2535 255.016 23.4585 255.45 23.7722C255.862 24.087 256.18 24.508 256.371 24.9898C256.61 25.6317 256.721 26.3142 256.697 26.9987V31.8647C257.34 31.6375 257.997 31.4467 258.662 31.2933C259.616 31.07 260.594 30.9623 261.575 30.9724C264.859 30.9724 267.422 31.7915 269.264 33.4296C271.106 35.0678 272.026 37.5089 272.026 40.753L272 55.7952Z" fill="black"/>
<path d="M90.8459 41.1354C90.3933 41.1357 89.9491 41.0131 89.561 40.7808C89.1729 40.5485 88.8555 40.2152 88.6427 39.8166C86.4895 35.8761 83.3828 32.5351 79.6053 30.0976C76.6816 28.2246 73.4181 26.9418 69.9994 26.3217C69.6772 26.2635 69.3697 26.1424 69.0945 25.9655C68.8193 25.7885 68.5817 25.5591 68.3955 25.2904C68.2093 25.0218 68.078 24.7191 68.0092 24.3997C67.9404 24.0804 67.9354 23.7506 67.9946 23.4293C68.0534 23.1077 68.1753 22.8008 68.3531 22.5262C68.5309 22.2516 68.7613 22.0147 69.031 21.8289C69.3006 21.6432 69.6044 21.5123 69.9248 21.4437C70.2452 21.3751 70.576 21.3702 70.8984 21.4292C74.9566 22.1665 78.8308 23.6897 82.302 25.9129C86.7817 28.8012 90.4657 32.7619 93.0183 37.4341C93.3354 38.013 93.4091 38.6938 93.2232 39.3269C93.0373 39.9599 92.6069 40.4934 92.0268 40.8101C91.6666 41.0153 91.2606 41.1271 90.8459 41.1354Z" fill="#1769FF"/>
<path d="M93.3222 36.6869C92.6657 36.4583 90.1276 36.7528 88.9599 37.566C86.6334 39.2013 88.5193 40.7881 88.3695 41.4255C88.2329 41.9881 86.2456 43.153 85.7257 45.3817C85.1132 47.94 87.1665 49.817 88.7837 49.162C90.7445 48.3664 88.9159 46.6828 89.5416 45.8608C89.8676 45.4212 90.6167 45.3201 91.5553 46.5202C92.9389 48.2785 90.8282 48.2785 90.1805 48.7576C88.1095 50.2521 92.0928 54.3314 93.6571 51.8038C94.5075 54.2698 97.2659 53.5621 98.1868 51.0214C98.3146 51.6632 99.2091 51.9005 99.7775 51.5797C101.602 50.5467 101.619 44.652 97.0985 41.2541C96.2568 40.6211 94.9746 40.1551 94.6265 39.1133C94.296 38.1858 94.5119 37.1001 93.3222 36.6869Z" fill="white"/>
<path d="M95.4813 53.5973C95.0768 53.5883 94.6835 53.4628 94.3489 53.2358C94.0143 53.0088 93.7526 52.6901 93.5954 52.3182C93.395 52.5339 93.1436 52.696 92.8642 52.7897C92.5847 52.8834 92.2862 52.9056 91.9959 52.8544C91.3834 52.7084 90.8209 52.4027 90.3656 51.9687C89.9104 51.5346 89.5789 50.9878 89.405 50.384C89.3069 50.0543 89.315 49.7023 89.428 49.3774C89.5411 49.0525 89.7534 48.7712 90.0351 48.573C90.2631 48.4321 90.5091 48.3227 90.7665 48.2477C91.2072 48.0983 91.6478 47.9312 91.7491 47.6411C91.8152 47.4257 91.6787 47.1004 91.357 46.6916C90.771 45.9399 90.3435 45.8125 90.1408 45.8125C90.0635 45.8128 89.9873 45.8313 89.9184 45.8664C89.8495 45.9015 89.7898 45.9523 89.7443 46.0147C89.5768 46.2345 89.6782 46.6037 89.7971 47.0301C90.0086 47.7861 90.295 48.8235 88.885 49.395C88.4844 49.5437 88.0501 49.5776 87.6312 49.4929C87.2123 49.4082 86.8254 49.2083 86.5144 48.9158C86.0275 48.4712 85.6738 47.9005 85.4925 47.2673C85.3113 46.634 85.3096 45.963 85.4877 45.3289C85.8623 43.7684 86.8978 42.7222 87.5852 42.0277C87.8037 41.8342 87.9936 41.6107 88.1492 41.364C88.122 41.1656 88.0561 40.9745 87.9553 40.8013C87.594 40.0013 86.9859 38.6606 88.8365 37.3594C90.0263 36.5199 92.6392 36.1638 93.428 36.4363C94.437 36.7924 94.578 37.5968 94.7014 38.3089C94.7391 38.5556 94.7936 38.7994 94.8644 39.0386C95.0892 39.7068 95.7898 40.1332 96.464 40.5464C96.7327 40.709 97.0104 40.8761 97.2527 41.0563C98.5037 41.9758 99.5129 43.1837 100.194 44.5769C100.876 45.97 101.209 47.507 101.166 49.0565C101.077 50.3752 100.619 51.395 99.9053 51.7995C99.7029 51.9069 99.4786 51.9667 99.2495 51.9744C99.0203 51.982 98.7925 51.9372 98.5834 51.8434C98.4478 51.7817 98.3241 51.6969 98.2177 51.5929C97.6052 52.8149 96.5565 53.5973 95.4813 53.5973ZM93.6395 51.5753H93.6659C93.7135 51.5802 93.7586 51.5985 93.7961 51.6281C93.8335 51.6577 93.8617 51.6973 93.8774 51.7423C94.1771 52.6215 94.7587 53.0962 95.4681 53.1006C96.4551 53.1006 97.4642 52.2214 97.9225 50.9555C97.9415 50.9043 97.9767 50.8607 98.0229 50.8314C98.069 50.802 98.1235 50.7885 98.178 50.7928C98.2318 50.7973 98.2827 50.819 98.3232 50.8547C98.3637 50.8903 98.3916 50.938 98.4028 50.9906C98.4258 51.0825 98.4701 51.1678 98.532 51.2395C98.594 51.3113 98.672 51.3676 98.7597 51.4038C98.8986 51.4679 99.0505 51.4988 99.2034 51.4943C99.3564 51.4897 99.5062 51.4497 99.6409 51.3775C100.196 51.0654 100.575 50.1906 100.65 49.0345C100.69 47.5679 100.373 46.1134 99.7262 44.7959C99.0792 43.4783 98.1216 42.3368 96.9354 41.4695C96.7107 41.3024 96.4551 41.1486 96.1863 40.9815C95.4681 40.542 94.6573 40.0496 94.3753 39.2232C94.2942 38.9617 94.2339 38.6942 94.1947 38.4232C94.0713 37.7331 93.9788 37.188 93.2429 36.9331C92.6965 36.7441 90.2554 36.9858 89.1053 37.8122C87.5939 38.8804 88.0346 39.8562 88.3915 40.6431C88.559 40.9045 88.6378 41.2127 88.6162 41.5222C88.4564 41.8656 88.2179 42.1668 87.92 42.4014C87.2723 43.0563 86.2985 44.0454 85.9548 45.4784C85.8047 46.0226 85.8075 46.5975 85.9629 47.1402C86.1183 47.6829 86.4204 48.1725 86.8361 48.5554C87.0776 48.7873 87.3792 48.9473 87.707 49.0172C88.0348 49.0871 88.3757 49.0642 88.6911 48.951C89.6429 48.5642 89.546 48.0279 89.3124 47.1927C89.1714 46.6872 89.026 46.1597 89.3433 45.7465C89.4345 45.6232 89.5533 45.5229 89.6902 45.4534C89.8271 45.384 89.9784 45.3474 90.132 45.3465C90.4933 45.3465 91.0618 45.5311 91.7403 46.4015C92.181 46.9554 92.3352 47.4125 92.2206 47.7993C92.062 48.3356 91.4583 48.5466 90.9252 48.7356C90.7126 48.7971 90.5084 48.8842 90.3171 48.995C90.1156 49.1359 89.9644 49.337 89.8852 49.5694C89.8059 49.8017 89.8029 50.0532 89.8764 50.2873C90.0248 50.7959 90.3044 51.2568 90.6871 51.6239C91.0698 51.9911 91.5424 52.2517 92.0576 52.3797C92.3276 52.4287 92.6062 52.3902 92.8527 52.27C93.0993 52.1498 93.3008 51.9542 93.428 51.7116C93.4477 51.672 93.4778 51.6385 93.515 51.6145C93.5522 51.5905 93.5952 51.577 93.6395 51.5753Z" fill="#1769FF"/>
<path d="M90.7401 39.7771C90.6953 39.7778 90.651 39.7664 90.6122 39.7439C90.5734 39.7214 90.5415 39.6888 90.5198 39.6496C90.4881 39.5918 90.4805 39.5239 90.4987 39.4605C90.5168 39.3972 90.5593 39.3435 90.6168 39.3111C91.288 38.9423 92.0669 38.818 92.82 38.9595C92.8522 38.9653 92.883 38.9774 92.9105 38.9952C92.9379 39.013 92.9616 39.0361 92.9801 39.0631C92.9985 39.0901 93.0114 39.1205 93.0179 39.1525C93.0245 39.1845 93.0246 39.2175 93.0182 39.2496C93.0044 39.3143 92.9658 39.3712 92.9107 39.4081C92.8556 39.445 92.7883 39.4591 92.723 39.4474C92.0801 39.324 91.4142 39.4298 90.8415 39.7463C90.8104 39.764 90.7758 39.7745 90.7401 39.7771Z" fill="#1769FF"/>
<path d="M93.6395 52.072C93.589 52.073 93.5395 52.0575 93.4985 52.028C93.4444 51.9899 93.4076 51.9321 93.3961 51.8671C93.3845 51.802 93.3992 51.7351 93.4368 51.6808C94.7587 49.8258 94.6089 48.5071 94.0317 46.1378C94.0171 46.0737 94.0283 46.0064 94.0629 45.9505C94.0975 45.8946 94.1528 45.8545 94.2168 45.8388C94.2483 45.8309 94.2811 45.8294 94.3132 45.8342C94.3454 45.839 94.3763 45.8501 94.4041 45.8668C94.432 45.8836 94.4562 45.9056 94.4755 45.9318C94.4948 45.9579 94.5087 45.9876 94.5164 46.0191C95.0584 48.2565 95.3051 49.8785 93.8422 51.9665C93.8192 51.9988 93.7888 52.0253 93.7536 52.0436C93.7184 52.0619 93.6793 52.0717 93.6395 52.072Z" fill="#1769FF"/>
<path d="M98.1737 51.2895H98.1208C98.0561 51.2758 97.9995 51.2372 97.9632 51.182C97.9269 51.1269 97.9139 51.0597 97.9269 50.995C98.3676 48.8587 98.0239 47.1356 96.8474 45.7201C96.8055 45.6688 96.7857 45.6029 96.7923 45.537C96.7989 45.4711 96.8314 45.4105 96.8826 45.3685C96.9338 45.328 96.9988 45.3091 97.0638 45.3156C97.1288 45.3222 97.1887 45.3538 97.2307 45.4036C98.4953 46.9202 98.8919 48.8323 98.416 51.0917C98.4048 51.1476 98.3745 51.1978 98.3303 51.2339C98.2862 51.27 98.2308 51.2896 98.1737 51.2895Z" fill="#1769FF"/>
<path d="M6.28345 34.4494C6.28345 28.8668 7.16472 23.9289 8.92726 19.6358C10.5342 15.571 12.9918 11.895 16.1361 8.85302C19.223 5.93327 22.8862 3.68762 26.892 2.25941C31.1874 0.726054 35.7209 -0.0373774 40.2829 0.00438716C44.8448 -0.0366384 49.3782 0.726771 53.6738 2.25941C57.6924 3.69631 61.3726 5.94046 64.487 8.85302C67.6575 11.8829 70.1333 15.5613 71.7443 19.6358C73.5068 23.9319 74.3881 28.8698 74.3881 34.4494C74.3881 40.0291 73.5274 44.9831 71.806 49.3114C70.2395 53.407 67.7941 57.1112 64.6412 60.1645C61.5386 63.0924 57.8549 65.3386 53.828 66.7582C49.4768 68.294 44.8894 69.0572 40.2741 69.0132C35.6542 69.0574 31.0637 68.2758 26.7201 66.7054C22.6988 65.2552 19.0324 62.9687 15.9642 59.9975C12.8589 56.9252 10.4398 53.2326 8.86557 49.162C7.14415 44.8629 6.28345 39.9588 6.28345 34.4494ZM25.645 34.4494C25.645 40.9551 26.9669 45.8198 29.6107 49.0433C32.2545 52.2669 35.8046 53.8786 40.2609 53.8786C44.7788 53.8786 48.3641 52.2669 51.0168 49.0433C53.6694 45.8198 54.9913 40.9551 54.9825 34.4494C54.9825 28.0023 53.6723 23.167 51.052 19.9435C48.4317 16.7199 44.8655 15.1082 40.3534 15.1082C35.903 15.1082 32.3353 16.6994 29.6503 19.8819C26.9654 23.0644 25.6303 27.9203 25.645 34.4494Z" fill="#1769FF"/>
<path d="M8.31922 34.5989C8.31864 34.1483 8.40712 33.7019 8.57958 33.2855C8.75204 32.869 9.0051 32.4905 9.32431 32.1716C9.64352 31.8528 10.0226 31.5998 10.4399 31.4272C10.8572 31.2547 11.3045 31.1658 11.7562 31.1658C12.2079 31.1658 12.6552 31.2547 13.0725 31.4272C13.4897 31.5998 13.8688 31.8528 14.188 32.1716C14.5072 32.4905 14.7603 32.869 14.9328 33.2855C15.1052 33.7019 15.1937 34.1483 15.1931 34.5989C15.1931 35.5083 14.831 36.3803 14.1865 37.0233C13.5419 37.6663 12.6677 38.0276 11.7562 38.0276C10.8446 38.0276 9.97042 37.6663 9.32587 37.0233C8.68131 36.3803 8.31922 35.5083 8.31922 34.5989ZM13.7523 51.5049C12.8407 51.5049 11.9665 51.1437 11.322 50.5007C10.6774 49.8577 10.3153 48.9856 10.3153 48.0763C10.3153 47.1669 10.6774 46.2948 11.322 45.6518C11.9665 45.0088 12.8407 44.6476 13.7523 44.6476C14.6638 44.6476 15.538 45.0088 16.1825 45.6518C16.8271 46.2948 17.1892 47.1669 17.1892 48.0763C17.1892 48.9856 16.8271 49.8577 16.1825 50.5007C15.538 51.1437 14.6638 51.5049 13.7523 51.5049ZM13.7523 24.3788C12.8407 24.3788 11.9665 24.0176 11.322 23.3746C10.6774 22.7316 10.3153 21.8595 10.3153 20.9501C10.3124 20.4978 10.3991 20.0494 10.5705 19.6306C10.7419 19.2118 10.9945 18.831 11.3139 18.5099C11.6332 18.1888 12.0131 17.9339 12.4315 17.7597C12.85 17.5856 13.2988 17.4956 13.7523 17.4951C14.2057 17.4956 14.6545 17.5856 15.073 17.7597C15.4914 17.9339 15.8712 18.1888 16.1906 18.5099C16.51 18.831 16.7626 19.2118 16.934 19.6306C17.1054 20.0494 17.1921 20.4978 17.1892 20.9501C17.1892 21.8595 16.8271 22.7316 16.1825 23.3746C15.538 24.0176 14.6638 24.3788 13.7523 24.3788Z" fill="#0A4EEB" stroke="#0B51DB" stroke-width="0.92" stroke-miterlimit="10"/>
<path d="M11.5887 18.2511H5.64017C4.05105 18.2511 2.76282 19.5363 2.76282 21.1215C2.76282 22.7068 4.05105 23.992 5.64017 23.992H11.5887C13.1779 23.992 14.4661 22.7068 14.4661 21.1215C14.4661 19.5363 13.1779 18.2511 11.5887 18.2511Z" fill="#88C9FF"/>
<path d="M11.5887 45.197H5.64017C4.05105 45.197 2.76282 46.4822 2.76282 48.0675C2.76282 49.6528 4.05105 50.9379 5.64017 50.9379H11.5887C13.1779 50.9379 14.4661 49.6528 14.4661 48.0675C14.4661 46.4822 13.1779 45.197 11.5887 45.197Z" fill="#88C9FF"/>
<path d="M8.82593 31.7241H2.87735C1.28823 31.7241 0 33.0092 0 34.5945C0 36.1798 1.28823 37.4649 2.87735 37.4649H8.82593C10.4151 37.4649 11.7033 36.1798 11.7033 34.5945C11.7033 33.0092 10.4151 31.7241 8.82593 31.7241Z" fill="#88C9FF"/>
<path d="M75.6219 19.7589L74.8068 47.307C74.8032 47.6945 74.9538 48.0675 75.2256 48.3444C75.4973 48.6212 75.8681 48.7793 76.2564 48.784L82.0376 48.9554C82.426 48.96 82.7967 49.1181 83.0684 49.395C83.3402 49.6718 83.4908 50.0449 83.4873 50.4324C83.4782 50.6239 83.4314 50.8118 83.3493 50.9852C83.2672 51.1586 83.1517 51.3141 83.0092 51.4428C82.8667 51.5714 82.7001 51.6707 82.519 51.735C82.3379 51.7992 82.1458 51.8271 81.9539 51.817L76.1727 51.65C75.9806 51.6405 75.7884 51.669 75.6073 51.7337C75.4261 51.7984 75.2596 51.8982 75.1172 52.0272C74.9747 52.1562 74.8592 52.312 74.7772 52.4856C74.6952 52.6593 74.6484 52.8473 74.6393 53.039L74.6041 54.3006C74.6023 54.4928 74.6387 54.6834 74.7113 54.8615C74.7838 55.0395 74.8909 55.2015 75.0265 55.338C75.1622 55.4745 75.3235 55.5828 75.5014 55.6568C75.6792 55.7307 75.8699 55.7688 76.0626 55.7688L83.4256 55.9842C83.813 56.0021 84.1916 55.8658 84.4783 55.6054C84.765 55.3449 84.9363 54.9816 84.9546 54.5951L85.9725 20.0534C85.9754 19.8616 85.9402 19.6711 85.8691 19.4929C85.7979 19.3146 85.6921 19.1522 85.5578 19.015C85.4235 18.8777 85.2633 18.7683 85.0864 18.693C84.9095 18.6177 84.7195 18.5781 84.5272 18.5764L77.1642 18.361C76.9706 18.3504 76.7768 18.3782 76.5941 18.4429C76.4114 18.5077 76.2434 18.608 76.0999 18.7381C75.9564 18.8681 75.8402 19.0254 75.7582 19.2006C75.6761 19.3758 75.6298 19.5656 75.6219 19.7589Z" fill="#88C9FF"/>
<path d="M86.1003 15.328C86.1003 14.7126 85.8183 14.2026 85.4305 14.1938L76.4944 13.9301C76.1066 13.9301 75.7762 14.4092 75.7585 15.0247C75.7585 15.6445 76.0406 16.1544 76.4283 16.1632L85.3688 16.4269C85.7566 16.4313 86.0827 15.9434 86.1003 15.328Z" fill="#0A4EEB"/>
<path d="M78.7862 6.69704C77.2604 6.65137 75.9863 7.84734 75.9406 9.36829C75.8949 10.8892 77.0947 12.1593 78.6206 12.2049L83.4411 12.3492C84.967 12.3949 86.241 11.1989 86.2867 9.67793C86.3325 8.15697 85.1326 6.88697 83.6068 6.84131L78.7862 6.69704Z" fill="#1769FF"/>
<path d="M83.5004 58.4062C83.6495 58.4095 83.7951 58.4521 83.9224 58.5296C84.0496 58.6071 84.1541 58.7167 84.2253 58.8475C84.2964 58.9782 84.3316 59.1254 84.3274 59.2741C84.3231 59.4228 84.2795 59.5677 84.201 59.6942L82.412 62.5866L80.6231 65.479C80.5452 65.6068 80.4349 65.7118 80.3032 65.7833C80.1716 65.8549 80.0234 65.8905 79.8735 65.8865C79.7236 65.8824 79.5775 65.839 79.4499 65.7605C79.3223 65.682 79.2178 65.5712 79.147 65.4394L77.5298 62.4459L75.9127 59.4524C75.8423 59.3212 75.8077 59.1739 75.8124 59.0252C75.8172 58.8765 75.861 58.7316 75.9396 58.6051C76.0181 58.4787 76.1287 58.375 76.2601 58.3046C76.3915 58.2342 76.5391 58.1995 76.6882 58.204L80.0943 58.3051L83.5004 58.4062Z" fill="#1769FF"/>
</g>
<defs>
<clipPath id="clip0_106_77">
<rect width="272" height="69" fill="white"/>
</clipPath>
</defs>
</svg>
