<svg width="280" height="71" viewBox="0 0 280 71" fill="none" xmlns="http://www.w3.org/2000/svg">
<g clip-path="url(#clip0_2732_1430)">
<path d="M115.166 41.9622C115.121 39.5617 115.546 37.1756 116.417 34.9377C117.177 33.0073 118.343 31.2614 119.836 29.8175C121.301 28.4317 123.04 27.3657 124.941 26.6874C126.977 25.9606 129.126 25.5992 131.289 25.62C133.451 25.6002 135.6 25.9615 137.636 26.6874C139.542 27.3698 141.288 28.4351 142.765 29.8175C144.271 31.2551 145.447 33.0021 146.21 34.9377C147.082 37.1756 147.507 39.5617 147.462 41.9622C147.505 44.3688 147.09 46.7618 146.238 49.0137C145.495 50.9547 144.336 52.71 142.842 54.1566C141.37 55.5472 139.624 56.615 137.714 57.2911C135.648 58.0178 133.47 58.379 131.28 58.3586C129.088 58.3788 126.911 58.0081 124.85 57.264C122.943 56.581 121.203 55.5018 119.745 54.0978C118.27 52.6402 117.122 50.8874 116.376 48.9549C115.528 46.7227 115.117 44.3489 115.166 41.9622ZM124.352 41.9622C124.352 45.053 124.982 47.3613 126.242 48.8871C126.85 49.6378 127.625 50.2361 128.506 50.6343C129.387 51.0325 130.35 51.2195 131.316 51.1804C132.287 51.2195 133.254 51.0327 134.14 50.6347C135.026 50.2367 135.807 49.6384 136.421 48.8871C137.682 47.3613 138.312 45.053 138.312 41.9622C138.312 38.8713 137.691 36.5796 136.449 35.087C135.84 34.3368 135.063 33.7391 134.182 33.3417C133.3 32.9443 132.337 32.7582 131.37 32.7982C130.407 32.7626 129.448 32.9479 128.568 33.34C127.687 33.7321 126.909 34.3205 126.292 35.0598C124.998 36.5736 124.352 38.8743 124.352 41.9622Z" fill="#022F5B"/>
<path d="M165.013 41.7298C165.013 40.6714 164.711 39.8964 164.106 39.4049C163.408 38.8788 162.546 38.6161 161.672 38.6631C160.989 38.6633 160.31 38.7499 159.649 38.9209C159.035 39.0662 158.454 39.3256 157.936 39.6853V57.4116C157.406 57.5537 156.866 57.6565 156.321 57.7192C155.57 57.8234 154.813 57.8748 154.054 57.873C153.377 57.8793 152.701 57.8279 152.032 57.7192C151.487 57.6393 150.969 57.4299 150.522 57.1086C150.099 56.7833 149.772 56.3506 149.575 55.8556C149.331 55.1946 149.219 54.4925 149.244 53.7885V38.4596C149.206 37.6635 149.411 36.8747 149.833 36.198C150.267 35.5759 150.813 35.0391 151.443 34.6149C152.782 33.7135 154.262 33.0395 155.823 32.6202C157.734 32.0937 159.711 31.8409 161.694 31.8693C165.551 31.8693 168.523 32.7121 170.608 34.3978C172.694 36.0834 173.735 38.4249 173.732 41.4223V57.4116C173.203 57.5537 172.663 57.6565 172.118 57.7192C171.367 57.8234 170.609 57.8748 169.851 57.873C169.174 57.8793 168.497 57.8279 167.829 57.7192C167.284 57.6393 166.766 57.4299 166.319 57.1086C165.896 56.7833 165.569 56.3506 165.371 55.8556C165.128 55.1946 165.015 54.4925 165.04 53.7885L165.013 41.7298Z" fill="#022F5B"/>
<path d="M189.234 58.2893C188.654 58.2893 187.974 58.2893 187.185 58.2396C186.396 58.1898 185.589 58.14 184.755 58.036C183.92 57.932 183.091 57.8053 182.27 57.6516C181.495 57.5126 180.736 57.299 180.003 57.0138C178.126 56.2991 177.187 55.0568 177.187 53.2867V29.418C177.169 29.1153 177.211 28.8119 177.312 28.526C177.414 28.24 177.572 27.9773 177.777 27.7535C178.237 27.3221 178.789 26.9991 179.391 26.8081C180.802 26.3424 182.263 26.0389 183.744 25.9035C185.53 25.7149 187.325 25.6213 189.121 25.6231C193.486 25.6231 196.849 26.3543 199.209 27.8168C201.57 29.2793 202.747 31.5409 202.741 34.6015C202.774 36.0349 202.304 37.4346 201.413 38.5593C200.478 39.6984 199.232 40.5422 197.826 40.9882C199.474 41.427 200.959 42.3318 202.102 43.5936C203.264 44.8979 203.878 46.5988 203.816 48.3429C203.816 51.7172 202.561 54.2124 200.053 55.8287C197.544 57.445 193.938 58.2652 189.234 58.2893ZM185.906 38.6226H189.647C191.111 38.6226 192.181 38.3512 192.848 37.8039C193.188 37.5071 193.455 37.136 193.628 36.7194C193.801 36.3028 193.876 35.852 193.845 35.4021C193.855 34.9686 193.754 34.5398 193.553 34.1555C193.351 33.7711 193.056 33.4438 192.694 33.2039C191.923 32.6611 190.77 32.3897 189.234 32.3897C188.722 32.3897 188.133 32.3897 187.471 32.4394C186.947 32.4603 186.424 32.5117 185.906 32.5932V38.6226ZM185.906 51.0884C186.51 51.245 187.128 51.339 187.752 51.3689C188.5 51.4186 189.216 51.4458 189.901 51.4458C191.093 51.49 192.273 51.1984 193.306 50.6045C193.75 50.3296 194.111 49.9395 194.351 49.4759C194.591 49.0123 194.699 48.4925 194.666 47.972C194.666 46.8457 194.294 46.0451 193.542 45.5702C192.789 45.0953 191.646 44.8555 190.109 44.8555H185.911L185.906 51.0884Z" fill="#022F5B"/>
<path d="M205.421 32.9924C205.95 32.8547 206.488 32.752 207.031 32.6849C207.782 32.5846 208.539 32.5347 209.298 32.5356C209.975 32.5299 210.651 32.5799 211.32 32.6849C211.865 32.7663 212.383 32.9772 212.83 33.3C213.254 33.6239 213.581 34.0571 213.777 34.5529C214.022 35.2137 214.136 35.9158 214.113 36.62V47.6067C214.113 49.0059 214.454 50.0025 215.137 50.5965C215.818 51.1891 216.811 51.5012 218.107 51.5012C218.753 51.5169 219.397 51.4485 220.025 51.2976C220.422 51.1976 220.809 51.0613 221.181 50.8906V32.9924C221.711 32.8547 222.248 32.752 222.791 32.6849C223.542 32.5846 224.3 32.5347 225.058 32.5356C225.735 32.5299 226.411 32.5799 227.08 32.6849C227.626 32.7663 228.143 32.9772 228.59 33.3C229.014 33.6239 229.342 34.0571 229.538 34.5529C229.783 35.2137 229.897 35.9158 229.873 36.62V52.1525C229.908 52.9278 229.724 53.6973 229.344 54.3743C228.963 55.0512 228.401 55.6086 227.72 55.9836C226.398 56.7854 224.954 57.3645 223.444 57.6979C221.672 58.0997 219.86 58.2955 218.044 58.2814C216.326 58.297 214.613 58.0918 212.947 57.6708C211.495 57.3116 210.128 56.669 208.926 55.7801C207.789 54.9198 206.89 53.785 206.314 52.4827C205.665 50.9411 205.355 49.2781 205.407 47.6067L205.421 32.9924Z" fill="#022F5B"/>
<path d="M253.663 50.0586C253.663 52.6458 252.69 54.6722 250.744 56.1377C248.797 57.6032 245.925 58.3359 242.129 58.3359C240.791 58.3427 239.455 58.2398 238.134 58.0284C237.045 57.8665 235.985 57.5481 234.988 57.083C234.187 56.7149 233.485 56.1631 232.938 55.4728C232.437 54.813 232.174 54.0029 232.195 53.175C232.169 52.4518 232.346 51.7358 232.707 51.1079C233.026 50.5673 233.442 50.0904 233.936 49.7012C235.024 50.288 236.164 50.7755 237.341 51.1577C238.774 51.6049 240.269 51.8203 241.771 51.7955C242.607 51.8432 243.442 51.688 244.205 51.3431C244.45 51.2429 244.661 51.0734 244.81 50.8557C244.96 50.638 245.043 50.3814 245.049 50.1174C245.054 49.8928 245 49.6708 244.892 49.4738C244.783 49.2768 244.625 49.1119 244.432 48.9956C243.802 48.6521 243.113 48.4296 242.401 48.3398L240.864 48.0322C237.892 47.4532 235.681 46.5486 234.23 45.3183C232.78 44.088 232.054 42.3074 232.054 39.9764C232.037 38.7861 232.319 37.6105 232.875 36.5569C233.424 35.5316 234.214 34.6546 235.178 34.0013C236.266 33.2756 237.469 32.7402 238.737 32.4182C240.227 32.0168 241.764 31.8145 243.308 31.8167C244.5 31.8109 245.691 31.9062 246.867 32.1016C247.864 32.2534 248.837 32.5363 249.76 32.9429C250.514 33.2679 251.181 33.7671 251.705 34.3994C252.187 35.0004 252.442 35.7512 252.426 36.5207C252.437 37.2195 252.282 37.911 251.972 38.5381C251.7 39.0724 251.325 39.5486 250.87 39.9403C250.48 39.7207 250.069 39.5419 249.642 39.4065C249.093 39.2211 248.495 39.0492 247.828 38.8954C247.162 38.7416 246.522 38.615 245.856 38.5109C245.256 38.4152 244.65 38.3638 244.042 38.3571C243.155 38.3208 242.269 38.4512 241.431 38.7416C241.171 38.8194 240.944 38.9776 240.781 39.1931C240.618 39.4086 240.528 39.6703 240.524 39.9403C240.527 40.1217 240.575 40.2994 240.665 40.4574C240.754 40.6154 240.882 40.7485 241.036 40.8449C241.64 41.1785 242.299 41.4036 242.981 41.5098L244.568 41.8671C247.848 42.6119 250.178 43.6417 251.56 44.9564C252.253 45.6093 252.799 46.4019 253.162 47.2816C253.525 48.1613 253.696 49.1079 253.663 50.0586Z" fill="#022F5B"/>
<path d="M279.884 57.4118C279.354 57.5534 278.815 57.6562 278.27 57.7194C277.519 57.8234 276.761 57.8748 276.003 57.8732C275.326 57.8795 274.649 57.8281 273.981 57.7194C273.436 57.6395 272.918 57.4301 272.471 57.1087C272.047 56.7848 271.719 56.3516 271.523 55.8558C271.278 55.195 271.164 54.493 271.188 53.7887V42.4582C271.188 41.0606 270.839 40.0836 270.14 39.5182C269.403 38.946 268.489 38.6484 267.556 38.6769C266.897 38.6735 266.241 38.7603 265.606 38.9347C265.085 39.0641 264.585 39.2698 264.124 39.5453V57.4254C263.594 57.567 263.054 57.6698 262.509 57.7329C261.758 57.837 261.001 57.8883 260.242 57.8867C259.565 57.8931 258.889 57.8416 258.22 57.7329C257.675 57.6531 257.157 57.4436 256.71 57.1223C256.288 56.7971 255.96 56.3643 255.763 55.8694C255.519 55.2083 255.407 54.5062 255.432 53.8023V24.153C255.804 24.0852 256.339 23.9947 257.096 23.8726C257.832 23.753 258.576 23.6925 259.322 23.6917C259.999 23.6874 260.676 23.7388 261.344 23.8454C261.89 23.9268 262.407 24.1378 262.854 24.4606C263.278 24.7845 263.606 25.2177 263.802 25.7135C264.048 26.374 264.162 27.0763 264.137 27.7806V32.7877C264.8 32.5539 265.475 32.3576 266.159 32.1997C267.142 31.97 268.148 31.8591 269.156 31.8695C272.536 31.8695 275.173 32.7123 277.068 34.398C278.964 36.0836 279.911 38.5955 279.911 41.9336L279.884 57.4118Z" fill="#022F5B"/>
<path d="M93.4791 42.3272C93.0133 42.3275 92.5563 42.2014 92.1569 41.9624C91.7576 41.7233 91.4309 41.3804 91.212 40.9703C88.9964 36.9155 85.7996 33.4777 81.9126 30.9696C78.9042 29.0422 75.546 27.7222 72.0283 27.0842C71.6968 27.0243 71.3804 26.8997 71.0972 26.7176C70.814 26.5355 70.5695 26.2995 70.3779 26.023C70.1863 25.7465 70.0512 25.4351 69.9804 25.1065C69.9096 24.7779 69.9045 24.4385 69.9653 24.1079C70.0259 23.777 70.1513 23.4612 70.3343 23.1787C70.5173 22.8961 70.7543 22.6523 71.0318 22.4612C71.3093 22.27 71.6218 22.1354 71.9515 22.0648C72.2812 21.9942 72.6217 21.9892 72.9533 22.0499C77.1292 22.8085 81.1157 24.3759 84.6875 26.6635C89.2971 29.6355 93.0879 33.711 95.7144 38.5187C96.0407 39.1143 96.1166 39.8149 95.9253 40.4663C95.734 41.1177 95.2911 41.6667 94.6942 41.9925C94.3236 42.2036 93.9058 42.3187 93.4791 42.3272Z" fill="#1769FF"/>
<path d="M96.0272 37.751C95.3516 37.5158 92.74 37.8188 91.5385 38.6556C89.1445 40.3382 91.085 41.9711 90.9309 42.6269C90.7903 43.2059 88.7455 44.4045 88.2104 46.6978C87.5802 49.3302 89.6931 51.2616 91.3571 50.5877C93.3748 49.769 91.4931 48.0366 92.137 47.1908C92.4725 46.7385 93.2433 46.6344 94.209 47.8693C95.6327 49.6785 93.4609 49.6785 92.7944 50.1715C90.6634 51.7094 94.7622 55.9069 96.3718 53.3061C97.2469 55.8436 100.085 55.1154 101.033 52.501C101.164 53.1614 102.085 53.4056 102.67 53.0754C104.547 52.0125 104.565 45.9469 99.9129 42.4505C99.0469 41.7992 97.7275 41.3197 97.3693 40.2477C97.0292 39.2933 97.2514 38.1761 96.0272 37.751Z" fill="white"/>
<path d="M98.249 55.1516C97.8327 55.1423 97.428 55.0131 97.0837 54.7796C96.7394 54.546 96.4701 54.2181 96.3084 53.8353C96.1022 54.0573 95.8435 54.2241 95.5559 54.3205C95.2684 54.4169 94.9612 54.4398 94.6625 54.3871C94.0323 54.2369 93.4534 53.9223 92.985 53.4757C92.5166 53.0291 92.1755 52.4664 91.9965 51.8451C91.8956 51.5059 91.9039 51.1436 92.0202 50.8093C92.1365 50.475 92.355 50.1855 92.6449 49.9816C92.8794 49.8366 93.1326 49.724 93.3975 49.6469C93.8509 49.4931 94.3043 49.3212 94.4086 49.0227C94.4766 48.8011 94.3361 48.4663 94.0051 48.0457C93.402 47.2722 92.9622 47.141 92.7537 47.141C92.6741 47.1414 92.5956 47.1604 92.5248 47.1966C92.4539 47.2327 92.3925 47.285 92.3456 47.3491C92.1733 47.5753 92.2776 47.9552 92.4 48.394C92.6176 49.1719 92.9123 50.2394 91.4614 50.8274C91.0492 50.9804 90.6023 51.0153 90.1713 50.9282C89.7402 50.841 89.3421 50.6354 89.0221 50.3344C88.5211 49.8768 88.1571 49.2896 87.9706 48.638C87.7841 47.9864 87.7824 47.296 87.9657 46.6435C88.3511 45.0378 89.4166 43.9613 90.1239 43.2466C90.3488 43.0475 90.5442 42.8175 90.7043 42.5636C90.6763 42.3595 90.6085 42.1628 90.5048 41.9847C90.133 41.1614 89.5073 39.7819 91.4116 38.443C92.6358 37.5791 95.3245 37.2127 96.1361 37.4932C97.1744 37.8595 97.3195 38.6873 97.4464 39.42C97.4852 39.6738 97.5413 39.9247 97.6142 40.1709C97.8454 40.8584 98.5663 41.2971 99.2601 41.7223C99.5366 41.8897 99.8223 42.0616 100.072 42.247C101.359 43.1932 102.397 44.4361 103.099 45.8696C103.8 47.3032 104.143 48.8847 104.098 50.4791C104.007 51.8361 103.536 52.8854 102.801 53.3016C102.593 53.4121 102.362 53.4737 102.126 53.4815C101.891 53.4894 101.656 53.4433 101.441 53.3468C101.301 53.2834 101.174 53.1961 101.065 53.089C100.434 54.3464 99.3553 55.1516 98.249 55.1516ZM96.3537 53.0709H96.3809C96.4298 53.0759 96.4763 53.0948 96.5148 53.1252C96.5534 53.1557 96.5824 53.1965 96.5986 53.2428C96.9069 54.1474 97.5054 54.6359 98.2354 54.6404C99.251 54.6404 100.289 53.7358 100.761 52.4331C100.78 52.3805 100.817 52.3356 100.864 52.3054C100.912 52.2752 100.968 52.2613 101.024 52.2658C101.079 52.2704 101.132 52.2927 101.173 52.3294C101.215 52.3661 101.244 52.4151 101.255 52.4693C101.279 52.5639 101.324 52.6516 101.388 52.7254C101.452 52.7992 101.532 52.8572 101.622 52.8945C101.765 52.9604 101.922 52.9923 102.079 52.9875C102.236 52.9828 102.39 52.9417 102.529 52.8674C103.1 52.5462 103.49 51.6461 103.567 50.4565C103.609 48.9474 103.283 47.4508 102.617 46.095C101.951 44.7392 100.966 43.5647 99.7452 42.6722C99.514 42.5003 99.251 42.342 98.9744 42.1701C98.2354 41.7178 97.4011 41.2112 97.1109 40.3608C97.0275 40.0917 96.9653 39.8164 96.925 39.5376C96.7981 38.8275 96.7028 38.2666 95.9457 38.0043C95.3834 37.8098 92.8715 38.0586 91.6881 38.9089C90.133 40.008 90.5864 41.0122 90.9536 41.8218C91.126 42.0908 91.2071 42.408 91.1849 42.7265C91.0204 43.0798 90.775 43.3897 90.4685 43.6311C89.802 44.305 88.8 45.3228 88.4463 46.7973C88.2918 47.3573 88.2947 47.9488 88.4546 48.5073C88.6146 49.0657 88.9254 49.5695 89.3531 49.9635C89.6016 50.2021 89.912 50.3667 90.2493 50.4387C90.5866 50.5106 90.9374 50.487 91.2619 50.3706C92.2413 49.9725 92.1416 49.4207 91.9013 48.5613C91.7562 48.0412 91.6065 47.4984 91.933 47.0732C92.0268 46.9463 92.1491 46.8431 92.29 46.7716C92.4309 46.7001 92.5865 46.6625 92.7446 46.6616C93.1164 46.6616 93.7013 46.8516 94.3995 47.7472C94.853 48.3171 95.0116 48.7875 94.8937 49.1855C94.7305 49.7373 94.1093 49.9545 93.5607 50.1489C93.342 50.2122 93.1319 50.3018 92.935 50.4158C92.7277 50.5608 92.5721 50.7678 92.4906 51.0068C92.4091 51.2459 92.4059 51.5047 92.4816 51.7456C92.6343 52.269 92.9219 52.7432 93.3158 53.121C93.7096 53.4988 94.1958 53.7669 94.726 53.8986C95.0038 53.949 95.2905 53.9095 95.5442 53.7858C95.7978 53.6621 96.0052 53.4608 96.1361 53.2111C96.1564 53.1704 96.1873 53.1359 96.2256 53.1113C96.2639 53.0866 96.3082 53.0726 96.3537 53.0709Z" fill="#1769FF"/>
<path d="M93.3702 40.9291C93.324 40.9299 93.2785 40.9181 93.2386 40.895C93.1987 40.8719 93.1658 40.8383 93.1435 40.798C93.1109 40.7385 93.1031 40.6686 93.1218 40.6034C93.1404 40.5382 93.1841 40.483 93.2433 40.4497C93.9339 40.0702 94.7354 39.9422 95.5103 40.0878C95.5435 40.0938 95.5752 40.1063 95.6034 40.1246C95.6317 40.1429 95.6561 40.1666 95.6751 40.1944C95.6941 40.2222 95.7073 40.2535 95.7141 40.2864C95.7208 40.3194 95.7209 40.3534 95.7143 40.3864C95.7001 40.453 95.6604 40.5115 95.6037 40.5495C95.547 40.5875 95.4778 40.602 95.4106 40.5899C94.749 40.4629 94.0638 40.5718 93.4745 40.8975C93.4426 40.9157 93.4069 40.9265 93.3702 40.9291Z" fill="#1769FF"/>
<path d="M96.3537 53.5816C96.3017 53.5826 96.2508 53.5667 96.2086 53.5363C96.153 53.4972 96.1151 53.4376 96.1032 53.3707C96.0913 53.3038 96.1064 53.2349 96.1452 53.179C97.5054 51.2703 97.3512 49.9133 96.7573 47.4753C96.7422 47.4094 96.7538 47.3402 96.7894 47.2827C96.825 47.2251 96.8819 47.1838 96.9477 47.1677C96.9802 47.1596 97.0139 47.158 97.047 47.163C97.0801 47.1679 97.1119 47.1793 97.1405 47.1965C97.1692 47.2138 97.1941 47.2365 97.2139 47.2634C97.2337 47.2902 97.2481 47.3208 97.256 47.3532C97.8137 49.6555 98.0676 51.3245 96.5623 53.473C96.5386 53.5063 96.5074 53.5335 96.4711 53.5524C96.4348 53.5712 96.3946 53.5812 96.3537 53.5816Z" fill="#1769FF"/>
<path d="M101.019 52.7753H100.965C100.898 52.7612 100.84 52.7214 100.803 52.6647C100.765 52.608 100.752 52.5388 100.765 52.4723C101.219 50.274 100.865 48.501 99.6545 47.0445C99.6114 46.9916 99.591 46.9239 99.5978 46.8561C99.6046 46.7883 99.6381 46.7259 99.6908 46.6827C99.7435 46.641 99.8104 46.6215 99.8773 46.6283C99.9441 46.635 100.006 46.6675 100.049 46.7188C101.35 48.2793 101.758 50.2469 101.269 52.5718C101.257 52.6293 101.226 52.681 101.181 52.7181C101.135 52.7552 101.078 52.7754 101.019 52.7753Z" fill="#1769FF"/>
<path d="M6.46558 35.4471C6.46558 29.7027 7.37239 24.6216 9.18602 20.204C10.8395 16.0215 13.3684 12.2389 16.6038 9.10874C19.7802 6.10436 23.5496 3.79362 27.6714 2.32401C32.0914 0.74621 36.7563 -0.0393495 41.4505 0.00362556C46.1447 -0.0385891 50.8094 0.746948 55.2296 2.32401C59.3646 3.80256 63.1515 6.11176 66.3562 9.10874C69.6186 12.2264 72.1661 16.0115 73.8238 20.204C75.6375 24.6247 76.5443 29.7057 76.5443 35.4471C76.5443 41.1885 75.6586 46.2861 73.8873 50.7399C72.2754 54.9541 69.7592 58.7657 66.5149 61.9075C63.3223 64.9203 59.5318 67.2316 55.3883 68.6923C50.9109 70.2726 46.1906 71.058 41.4415 71.0127C36.6877 71.0582 31.9641 70.254 27.4946 68.638C23.3567 67.1458 19.5841 64.793 16.4269 61.7357C13.2316 58.5743 10.7424 54.7747 9.12254 50.5861C7.35123 46.1624 6.46558 41.1161 6.46558 35.4471ZM26.3883 35.4471C26.3883 42.1414 27.7485 47.147 30.469 50.464C33.1894 53.7809 36.8424 55.4394 41.4278 55.4394C46.0768 55.4394 49.766 53.7809 52.4955 50.464C55.225 47.147 56.5853 42.1414 56.5762 35.4471C56.5762 28.8131 55.2281 23.8376 52.5318 20.5207C49.8355 17.2037 46.166 15.5452 41.5231 15.5452C36.9436 15.5452 33.2725 17.1826 30.5098 20.4573C27.747 23.7321 26.3732 28.7287 26.3883 35.4471Z" fill="#1769FF"/>
<path d="M8.56031 35.6016C8.55971 35.1379 8.65075 34.6786 8.82822 34.25C9.00568 33.8215 9.26607 33.432 9.59453 33.1039C9.92299 32.7758 10.3131 32.5156 10.7424 32.338C11.1718 32.1604 11.6321 32.069 12.0969 32.069C12.5617 32.069 13.0219 32.1604 13.4513 32.338C13.8807 32.5156 14.2708 32.7758 14.5992 33.1039C14.9277 33.432 15.1881 33.8215 15.3655 34.25C15.543 34.6786 15.6341 35.1379 15.6335 35.6016C15.6335 36.5373 15.2609 37.4346 14.5976 38.0963C13.9344 38.7579 13.0348 39.1296 12.0969 39.1296C11.1589 39.1296 10.2594 38.7579 9.59614 38.0963C8.9329 37.4346 8.56031 36.5373 8.56031 35.6016ZM14.1508 52.9976C13.2129 52.9976 12.3133 52.6259 11.6501 51.9643C10.9868 51.3026 10.6142 50.4053 10.6142 49.4696C10.6142 48.5339 10.9868 47.6365 11.6501 46.9748C12.3133 46.3132 13.2129 45.9415 14.1508 45.9415C15.0888 45.9415 15.9883 46.3132 16.6515 46.9748C17.3148 47.6365 17.6874 48.5339 17.6874 49.4696C17.6874 50.4053 17.3148 51.3026 16.6515 51.9643C15.9883 52.6259 15.0888 52.9976 14.1508 52.9976ZM14.1508 25.0852C13.2129 25.0852 12.3133 24.7135 11.6501 24.0519C10.9868 23.3902 10.6142 22.4928 10.6142 21.5571C10.6112 21.0917 10.7005 20.6303 10.8768 20.1994C11.0532 19.7685 11.3131 19.3766 11.6418 19.0462C11.9704 18.7159 12.3612 18.4535 12.7918 18.2743C13.2224 18.0951 13.6843 18.0025 14.1508 18.002C14.6174 18.0025 15.0792 18.0951 15.5098 18.2743C15.9404 18.4535 16.3312 18.7159 16.6599 19.0462C16.9885 19.3766 17.2485 19.7685 17.4248 20.1994C17.6011 20.6303 17.6904 21.0917 17.6874 21.5571C17.6874 22.4928 17.3148 23.3902 16.6515 24.0519C15.9883 24.7135 15.0888 25.0852 14.1508 25.0852Z" fill="#0A4EEB" stroke="#0B51DB" stroke-width="0.92" stroke-miterlimit="10"/>
<path d="M11.9247 18.7793H5.80365C4.16847 18.7793 2.8429 20.1017 2.8429 21.7329C2.8429 23.3642 4.16847 24.6865 5.80365 24.6865H11.9247C13.5598 24.6865 14.8854 23.3642 14.8854 21.7329C14.8854 20.1017 13.5598 18.7793 11.9247 18.7793Z" fill="#88C9FF"/>
<path d="M11.9247 46.5078H5.80365C4.16847 46.5078 2.8429 47.8302 2.8429 49.4614C2.8429 51.0927 4.16847 52.4151 5.80365 52.4151H11.9247C13.5598 52.4151 14.8854 51.0927 14.8854 49.4614C14.8854 47.8302 13.5598 46.5078 11.9247 46.5078Z" fill="#88C9FF"/>
<path d="M9.08176 32.6445H2.96075C1.32557 32.6445 0 33.9669 0 35.5982C0 37.2294 1.32557 38.5518 2.96075 38.5518H9.08176C10.7169 38.5518 12.0425 37.2294 12.0425 35.5982C12.0425 33.9669 10.7169 32.6445 9.08176 32.6445Z" fill="#88C9FF"/>
<path d="M77.8138 20.3313L76.975 48.6779C76.9714 49.0766 77.1263 49.4605 77.406 49.7453C77.6856 50.0302 78.067 50.1929 78.4667 50.1977L84.4154 50.3741C84.8151 50.3788 85.1965 50.5415 85.4761 50.8264C85.7558 51.1113 85.9107 51.4951 85.9071 51.8938C85.8978 52.0909 85.8496 52.2842 85.7651 52.4627C85.6807 52.6411 85.5618 52.8011 85.4152 52.9335C85.2685 53.0659 85.0971 53.1681 84.9107 53.2342C84.7244 53.3003 84.5268 53.329 84.3293 53.3186L78.3805 53.1468C78.1828 53.137 77.9851 53.1663 77.7987 53.2329C77.6123 53.2995 77.441 53.4021 77.2944 53.5349C77.1478 53.6677 77.029 53.828 76.9446 54.0066C76.8602 54.1853 76.812 54.3788 76.8027 54.5761L76.7664 55.8742C76.7646 56.072 76.8021 56.2681 76.8767 56.4513C76.9513 56.6346 77.0616 56.8012 77.2011 56.9417C77.3407 57.0821 77.5068 57.1936 77.6897 57.2697C77.8727 57.3458 78.069 57.385 78.2672 57.385L85.8437 57.6066C86.2422 57.625 86.6318 57.4848 86.9269 57.2168C87.2219 56.9488 87.3982 56.5749 87.417 56.1773L88.4643 20.6343C88.4673 20.4369 88.4312 20.2409 88.358 20.0575C88.2847 19.8742 88.1759 19.707 88.0377 19.5658C87.8994 19.4246 87.7346 19.312 87.5526 19.2345C87.3706 19.1571 87.175 19.1163 86.9772 19.1145L79.4007 18.8929C79.2015 18.8819 79.0021 18.9106 78.8141 18.9772C78.6261 19.0438 78.4532 19.147 78.3056 19.2809C78.1579 19.4147 78.0384 19.5765 77.954 19.7568C77.8696 19.9371 77.8219 20.1324 77.8138 20.3313Z" fill="#88C9FF"/>
<path d="M88.5958 15.7723C88.5958 15.1391 88.3057 14.6144 87.9067 14.6054L78.7115 14.334C78.3125 14.334 77.9725 14.827 77.9543 15.4602C77.9543 16.098 78.2445 16.6227 78.6435 16.6318L87.8432 16.9031C88.2422 16.9077 88.5777 16.4056 88.5958 15.7723Z" fill="#0A4EEB"/>
<path d="M81.07 6.89021C79.4999 6.84322 78.1889 8.07385 78.1419 9.63889C78.0948 11.2039 79.3294 12.5107 80.8995 12.5577L85.8598 12.7062C87.4299 12.7532 88.7408 11.5225 88.7879 9.9575C88.8349 8.39246 87.6003 7.08565 86.0302 7.03866L81.07 6.89021Z" fill="#1769FF"/>
<path d="M85.9208 60.0991C86.0742 60.1025 86.224 60.1463 86.3549 60.226C86.4859 60.3057 86.5935 60.4186 86.6666 60.5531C86.7398 60.6877 86.7761 60.8391 86.7717 60.9921C86.7673 61.1451 86.7225 61.2942 86.6417 61.4244L84.8009 64.4006L82.96 67.3768C82.8799 67.5083 82.7664 67.6164 82.6309 67.69C82.4955 67.7636 82.3429 67.8003 82.1887 67.7961C82.0345 67.792 81.8842 67.7473 81.7529 67.6665C81.6216 67.5857 81.514 67.4718 81.4411 67.3362L79.7771 64.2559L78.1131 61.1756C78.0407 61.0406 78.0051 60.889 78.01 60.736C78.0148 60.583 78.0599 60.4339 78.1408 60.3038C78.2216 60.1736 78.3354 60.067 78.4706 59.9945C78.6058 59.9221 78.7577 59.8864 78.9111 59.891L82.416 59.9951L85.9208 60.0991Z" fill="#1769FF"/>
</g>
<defs>
<clipPath id="clip0_2732_1430">
<rect width="279.884" height="71" fill="white"/>
</clipPath>
</defs>
</svg>
